<mxfile host="app.diagrams.net" modified="2021-06-25T22:26:17.670Z" agent="5.0 (X11; Linux x86_64) AppleWebKit/537.36 (KHTML, like Gecko) Chrome/91.0.4464.0 Safari/537.36 Edg/91.0.852.0" etag="0NNl9qFhQELGWORPr1WC" compressed="false" version="14.7.3" type="device">
  <diagram id="6v_UKsHeDzqBDUNiW_st" name="RISC-V">
    <mxGraphModel dx="1356" dy="822" grid="0" gridSize="1" guides="1" tooltips="1" connect="1" arrows="1" fold="1" page="1" pageScale="1" pageWidth="700" pageHeight="540" background="#FFFFFF" math="0" shadow="0">
      <root>
        <mxCell id="0jYIva3T7vnUbckOAgtF-0" />
        <mxCell id="0jYIva3T7vnUbckOAgtF-1" style="" parent="0jYIva3T7vnUbckOAgtF-0" />
        <UserObject label="" tags="simple forwarding pipeline" id="Haz_8EwUBin59iLyk_8Q-227">
          <mxCell style="rounded=1;gradientColor=none;perimeterSpacing=0;arcSize=1;strokeColor=none;movable=1;resizable=1;rotatable=1;deletable=1;editable=1;connectable=1;" parent="0jYIva3T7vnUbckOAgtF-1" vertex="1">
            <mxGeometry y="7" width="836" height="540" as="geometry" />
          </mxCell>
        </UserObject>
        <mxCell id="Haz_8EwUBin59iLyk_8Q-26" value="CPU" parent="0jYIva3T7vnUbckOAgtF-0" />
        <UserObject label="" tags="simple pipeline" id="uWEq7-W_z53UrtFael4O-41">
          <mxCell style="rounded=0;sketch=0;jumpStyle=arc;jumpSize=4;orthogonalLoop=1;jettySize=auto;html=1;exitX=0;exitY=0.2;exitDx=0;exitDy=0;exitPerimeter=0;entryX=1;entryY=0.5;entryDx=0;entryDy=0;shadow=0;labelBackgroundColor=none;endArrow=none;endFill=0;strokeWidth=3;fontFamily=sans-serif;fontSize=6;" parent="Haz_8EwUBin59iLyk_8Q-26" edge="1" visible="0">
            <mxGeometry relative="1" as="geometry">
              <mxPoint x="487.66666666666663" y="252.20000000000005" as="sourcePoint" />
              <mxPoint x="353" y="250.5" as="targetPoint" />
            </mxGeometry>
          </mxCell>
        </UserObject>
        <UserObject label="" tags="simple pipeline forwarding" id="Haz_8EwUBin59iLyk_8Q-185">
          <mxCell style="rounded=1;whiteSpace=wrap;html=1;fontFamily=sans-serif;fontSize=6;fontColor=#0000CC;align=left;fillColor=none;arcSize=30;spacing=2;" parent="Haz_8EwUBin59iLyk_8Q-26" vertex="1">
            <mxGeometry x="49" y="521" width="620" height="17" as="geometry" />
          </mxCell>
        </UserObject>
        <UserObject label="" tags="simple pipeline" id="Haz_8EwUBin59iLyk_8Q-28">
          <mxCell style="edgeStyle=orthogonalEdgeStyle;rounded=0;orthogonalLoop=1;jettySize=auto;html=0;exitX=0;exitY=0.5;exitDx=0;exitDy=0;entryX=0.984;entryY=0.37;entryDx=0;entryDy=0;entryPerimeter=0;shadow=0;fontFamily=sans-serif;fontSize=6;strokeWidth=3;labelBackgroundColor=none;endFill=0;endArrow=none;sketch=0;jumpStyle=arc;jumpSize=4;startArrow=none;" parent="Haz_8EwUBin59iLyk_8Q-26" source="Haz_8EwUBin59iLyk_8Q-153" target="Haz_8EwUBin59iLyk_8Q-40" edge="1" visible="0">
            <mxGeometry relative="1" as="geometry">
              <Array as="points" />
            </mxGeometry>
          </mxCell>
        </UserObject>
        <UserObject label="" tags="simple pipeline forwarding" id="Haz_8EwUBin59iLyk_8Q-29">
          <mxCell style="rounded=0;sketch=0;jumpStyle=arc;jumpSize=4;orthogonalLoop=1;jettySize=auto;html=1;exitX=0;exitY=0.5;exitDx=0;exitDy=0;entryX=1.001;entryY=0.12;entryDx=0;entryDy=0;entryPerimeter=0;shadow=0;labelBackgroundColor=none;endArrow=none;endFill=0;strokeWidth=3;fontFamily=sans-serif;fontSize=6;startArrow=none;" parent="Haz_8EwUBin59iLyk_8Q-26" source="Haz_8EwUBin59iLyk_8Q-118" target="Haz_8EwUBin59iLyk_8Q-40" edge="1">
            <mxGeometry relative="1" as="geometry" />
          </mxCell>
        </UserObject>
        <UserObject label="" tags="simple pipeline forwarding" id="Haz_8EwUBin59iLyk_8Q-30">
          <mxCell style="edgeStyle=orthogonalEdgeStyle;rounded=0;sketch=0;jumpStyle=arc;jumpSize=4;orthogonalLoop=1;jettySize=auto;shadow=0;endArrow=none;endFill=0;strokeColor=#3333FF;strokeWidth=1;fontSize=6;fontFamily=sans-serif;verticalAlign=middle;align=center;labelPosition=center;verticalLabelPosition=middle;labelBackgroundColor=none;html=1;exitX=0.5;exitY=0.17;exitDx=0;exitDy=0;exitPerimeter=0;entryX=0.993;entryY=0.695;entryDx=0;entryDy=0;entryPerimeter=0;" parent="Haz_8EwUBin59iLyk_8Q-26" source="Haz_8EwUBin59iLyk_8Q-180" target="Haz_8EwUBin59iLyk_8Q-85" edge="1">
            <mxGeometry x="486" y="234" as="geometry">
              <mxPoint x="251" y="134" as="targetPoint" />
              <Array as="points">
                <mxPoint x="503" y="139" />
                <mxPoint x="251" y="139" />
              </Array>
              <mxPoint x="504" y="247" as="sourcePoint" />
            </mxGeometry>
          </mxCell>
        </UserObject>
        <object label="" tags="forwarding" id="Haz_8EwUBin59iLyk_8Q-31">
          <mxCell style="edgeStyle=orthogonalEdgeStyle;rounded=0;sketch=0;jumpStyle=arc;jumpSize=4;orthogonalLoop=1;jettySize=auto;exitX=0.5;exitY=1;exitDx=0;exitDy=0;shadow=0;labelBackgroundColor=none;endArrow=none;endFill=0;strokeWidth=3;fontFamily=sans-serif;fontSize=6;entryX=0.508;entryY=-0.192;entryDx=0;entryDy=0;entryPerimeter=0;" parent="Haz_8EwUBin59iLyk_8Q-26" source="Haz_8EwUBin59iLyk_8Q-148" target="Haz_8EwUBin59iLyk_8Q-150" edge="1">
            <mxGeometry relative="1" as="geometry">
              <mxPoint x="421.0153550863723" y="506" as="targetPoint" />
            </mxGeometry>
          </mxCell>
        </object>
        <object label="" tags="forwarding" id="Haz_8EwUBin59iLyk_8Q-32">
          <mxCell style="edgeStyle=orthogonalEdgeStyle;rounded=0;sketch=0;jumpStyle=arc;jumpSize=4;orthogonalLoop=1;jettySize=auto;html=1;entryX=0.5;entryY=1;entryDx=0;entryDy=0;shadow=0;labelBackgroundColor=none;endArrow=none;endFill=0;strokeWidth=3;fontFamily=sans-serif;fontSize=6;" parent="Haz_8EwUBin59iLyk_8Q-26" source="Haz_8EwUBin59iLyk_8Q-143" target="Haz_8EwUBin59iLyk_8Q-145" edge="1">
            <mxGeometry relative="1" as="geometry" />
          </mxCell>
        </object>
        <UserObject label="" tags="forwarding" id="Haz_8EwUBin59iLyk_8Q-33">
          <mxCell style="edgeStyle=orthogonalEdgeStyle;rounded=0;sketch=0;jumpStyle=sharp;orthogonalLoop=1;jettySize=auto;html=1;shadow=0;labelBackgroundColor=none;endArrow=none;endFill=0;strokeWidth=3;fontFamily=sans-serif;fontSize=6;entryX=0.5;entryY=1;entryDx=0;entryDy=0;" parent="Haz_8EwUBin59iLyk_8Q-26" source="Haz_8EwUBin59iLyk_8Q-150" target="Haz_8EwUBin59iLyk_8Q-56" edge="1">
            <mxGeometry relative="1" as="geometry">
              <mxPoint x="572" y="286" as="targetPoint" />
              <Array as="points">
                <mxPoint x="421" y="493" />
                <mxPoint x="572" y="493" />
              </Array>
            </mxGeometry>
          </mxCell>
        </UserObject>
        <UserObject label="" tags="simple pipeline forwarding" id="Haz_8EwUBin59iLyk_8Q-34">
          <mxCell style="edgeStyle=orthogonalEdgeStyle;rounded=0;sketch=0;jumpStyle=sharp;orthogonalLoop=1;jettySize=auto;shadow=0;endArrow=none;endFill=0;strokeColor=#000000;strokeWidth=3;fontSize=6;fontFamily=sans-serif;verticalAlign=middle;align=center;labelPosition=center;verticalLabelPosition=middle;labelBackgroundColor=none;html=1;entryX=0;entryY=0.35;entryDx=0;entryDy=0;entryPerimeter=0;" parent="Haz_8EwUBin59iLyk_8Q-26" source="Haz_8EwUBin59iLyk_8Q-56" target="Haz_8EwUBin59iLyk_8Q-112" edge="1">
            <mxGeometry relative="1" as="geometry">
              <mxPoint x="691" y="262" as="targetPoint" />
              <Array as="points">
                <mxPoint x="571" y="250" />
                <mxPoint x="633" y="250" />
                <mxPoint x="633" y="251" />
                <mxPoint x="678" y="251" />
                <mxPoint x="678" y="262" />
                <mxPoint x="692" y="262" />
              </Array>
            </mxGeometry>
          </mxCell>
        </UserObject>
        <UserObject label="" tags="forwarding" id="Haz_8EwUBin59iLyk_8Q-35">
          <mxCell style="rounded=0;sketch=0;jumpStyle=sharp;orthogonalLoop=1;jettySize=auto;html=1;exitX=1;exitY=0.5;exitDx=0;exitDy=0;exitPerimeter=0;entryX=0.008;entryY=0.19;entryDx=0;entryDy=0;entryPerimeter=0;shadow=0;labelBackgroundColor=none;endArrow=none;endFill=0;strokeWidth=3;fontFamily=sans-serif;fontSize=6;" parent="Haz_8EwUBin59iLyk_8Q-26" source="Haz_8EwUBin59iLyk_8Q-116" target="Haz_8EwUBin59iLyk_8Q-180" edge="1">
            <mxGeometry relative="1" as="geometry" />
          </mxCell>
        </UserObject>
        <UserObject label="" tags="simple pipeline forwarding" id="Haz_8EwUBin59iLyk_8Q-36">
          <mxCell style="group;rounded=0;container=0;fontFamily=sans-serif;fontSize=6;verticalAlign=middle;align=center;labelPosition=center;verticalLabelPosition=middle;labelBackgroundColor=none;html=1;" parent="Haz_8EwUBin59iLyk_8Q-26" vertex="1" connectable="0">
            <mxGeometry x="1" width="720" height="540" as="geometry" />
          </mxCell>
        </UserObject>
        <UserObject label="" tags="simple pipeline forwarding" id="Haz_8EwUBin59iLyk_8Q-37">
          <mxCell style="edgeStyle=orthogonalEdgeStyle;jumpStyle=arc;jumpSize=4;orthogonalLoop=1;jettySize=auto;entryX=0;entryY=0.25;entryDx=0;entryDy=0;endArrow=none;endFill=0;fontSize=6;strokeWidth=3;sketch=0;shadow=0;rounded=0;fontFamily=sans-serif;verticalAlign=middle;align=center;labelPosition=center;verticalLabelPosition=middle;labelBackgroundColor=none;html=1;" parent="Haz_8EwUBin59iLyk_8Q-26" source="Haz_8EwUBin59iLyk_8Q-39" target="Haz_8EwUBin59iLyk_8Q-208" edge="1">
            <mxGeometry relative="1" as="geometry">
              <Array as="points">
                <mxPoint x="39" y="260" />
              </Array>
              <mxPoint x="39" y="280" as="sourcePoint" />
            </mxGeometry>
          </mxCell>
        </UserObject>
        <UserObject label="" tags="simple pipeline forwarding" id="Haz_8EwUBin59iLyk_8Q-38">
          <mxCell style="edgeStyle=orthogonalEdgeStyle;rounded=0;sketch=0;jumpStyle=arc;jumpSize=4;orthogonalLoop=1;jettySize=auto;entryX=0;entryY=0.2;entryDx=0;entryDy=0;entryPerimeter=0;shadow=0;endArrow=none;endFill=0;strokeColor=#000000;strokeWidth=3;fontSize=6;fontFamily=sans-serif;verticalAlign=middle;align=center;labelPosition=center;verticalLabelPosition=middle;labelBackgroundColor=none;html=1;" parent="Haz_8EwUBin59iLyk_8Q-26" source="Haz_8EwUBin59iLyk_8Q-39" target="Haz_8EwUBin59iLyk_8Q-219" edge="1">
            <mxGeometry relative="1" as="geometry">
              <Array as="points">
                <mxPoint x="39" y="260" />
                <mxPoint x="81" y="260" />
                <mxPoint x="81" y="338" />
              </Array>
              <mxPoint x="101.94444444444446" y="338" as="targetPoint" />
              <mxPoint x="39" y="280" as="sourcePoint" />
            </mxGeometry>
          </mxCell>
        </UserObject>
        <UserObject label="" tags="simple pipeline forwarding" id="Haz_8EwUBin59iLyk_8Q-41">
          <mxCell style="edgeStyle=orthogonalEdgeStyle;rounded=0;sketch=0;jumpStyle=sharp;orthogonalLoop=1;jettySize=auto;exitX=0;exitY=0.493;exitDx=0;exitDy=0;entryX=1;entryY=0.5;entryDx=0;entryDy=0;shadow=0;endArrow=none;endFill=0;strokeColor=#000000;strokeWidth=3;fontSize=6;fontFamily=sans-serif;verticalAlign=middle;align=center;labelPosition=center;verticalLabelPosition=middle;labelBackgroundColor=none;html=1;exitPerimeter=0;" parent="Haz_8EwUBin59iLyk_8Q-26" source="Haz_8EwUBin59iLyk_8Q-85" target="Haz_8EwUBin59iLyk_8Q-75" edge="1">
            <mxGeometry relative="1" as="geometry">
              <Array as="points" />
            </mxGeometry>
          </mxCell>
        </UserObject>
        <UserObject label="" tags="pipeline forwarding" id="Haz_8EwUBin59iLyk_8Q-42">
          <mxCell style="edgeStyle=orthogonalEdgeStyle;rounded=0;sketch=0;jumpStyle=arc;jumpSize=4;orthogonalLoop=1;jettySize=auto;shadow=0;endArrow=none;endFill=0;strokeWidth=1;fontSize=6;strokeColor=#3333FF;entryX=0.837;entryY=0.004;entryDx=0;entryDy=0;entryPerimeter=0;fontFamily=sans-serif;verticalAlign=middle;align=center;labelPosition=center;verticalLabelPosition=middle;labelBackgroundColor=none;html=1;exitX=1;exitY=0.5;exitDx=0;exitDy=0;" parent="Haz_8EwUBin59iLyk_8Q-26" source="HRoSpS79B9qHWH9jaoA8-5" target="Haz_8EwUBin59iLyk_8Q-40" edge="1">
            <mxGeometry relative="1" as="geometry">
              <mxPoint x="281" y="232" as="targetPoint" />
              <Array as="points">
                <mxPoint x="290" y="106" />
                <mxPoint x="290" y="107" />
                <mxPoint x="696" y="107" />
                <mxPoint x="696" y="45" />
                <mxPoint x="281" y="45" />
              </Array>
              <mxPoint x="291" y="107" as="sourcePoint" />
            </mxGeometry>
          </mxCell>
        </UserObject>
        <UserObject label="" tags="simple pipeline forwarding" id="Haz_8EwUBin59iLyk_8Q-44">
          <mxCell style="edgeStyle=orthogonalEdgeStyle;rounded=0;sketch=0;jumpStyle=sharp;orthogonalLoop=1;jettySize=auto;entryX=0;entryY=0.5;entryDx=0;entryDy=0;shadow=0;endArrow=none;endFill=0;strokeColor=#000000;strokeWidth=3;fontSize=6;fontFamily=sans-serif;verticalAlign=middle;align=center;labelPosition=center;verticalLabelPosition=middle;labelBackgroundColor=none;html=1;exitX=1;exitY=0.5;exitDx=0;exitDy=0;" parent="Haz_8EwUBin59iLyk_8Q-26" target="Haz_8EwUBin59iLyk_8Q-59" edge="1">
            <mxGeometry relative="1" as="geometry">
              <Array as="points" />
              <mxPoint x="273" y="416" as="sourcePoint" />
            </mxGeometry>
          </mxCell>
        </UserObject>
        <UserObject label="Immediate&#xa;decode" tags="simple pipeline forwarding" id="Haz_8EwUBin59iLyk_8Q-45">
          <mxCell style="rounded=1;gradientColor=none;arcSize=8;fontSize=6;fontFamily=sans-serif;fontStyle=1;verticalAlign=middle;align=center;labelPosition=center;verticalLabelPosition=middle;labelBackgroundColor=none;" parent="Haz_8EwUBin59iLyk_8Q-26" vertex="1">
            <mxGeometry x="228" y="398" width="45" height="28" as="geometry" />
          </mxCell>
        </UserObject>
        <UserObject label="" tags="simple pipeline forwarding" id="Haz_8EwUBin59iLyk_8Q-46">
          <mxCell style="edgeStyle=orthogonalEdgeStyle;rounded=0;sketch=0;jumpStyle=sharp;orthogonalLoop=1;jettySize=auto;exitX=1;exitY=0.25;exitDx=0;exitDy=0;entryX=0;entryY=0.65;entryDx=0;entryDy=0;entryPerimeter=0;shadow=0;endArrow=none;endFill=0;strokeColor=#000000;strokeWidth=3;fontSize=6;fontFamily=sans-serif;verticalAlign=middle;align=center;labelPosition=center;verticalLabelPosition=middle;labelBackgroundColor=none;html=1;" parent="Haz_8EwUBin59iLyk_8Q-26" source="Haz_8EwUBin59iLyk_8Q-211" target="Haz_8EwUBin59iLyk_8Q-112" edge="1">
            <mxGeometry relative="1" as="geometry">
              <Array as="points">
                <mxPoint x="679" y="278" />
                <mxPoint x="679" y="269" />
              </Array>
              <mxPoint x="690.0958219216135" y="270.0596813421849" as="targetPoint" />
            </mxGeometry>
          </mxCell>
        </UserObject>
        <UserObject label="" tags="simple pipeline forwarding" id="Haz_8EwUBin59iLyk_8Q-47">
          <mxCell style="edgeStyle=orthogonalEdgeStyle;rounded=0;sketch=0;jumpStyle=arc;jumpSize=4;orthogonalLoop=1;jettySize=auto;exitX=0.668;exitY=0.003;exitDx=0;exitDy=0;entryX=1.001;entryY=0.518;entryDx=0;entryDy=0;entryPerimeter=0;shadow=0;endArrow=none;endFill=0;strokeColor=#3333FF;strokeWidth=1;fontSize=6;exitPerimeter=0;fontFamily=sans-serif;verticalAlign=middle;align=center;labelPosition=center;verticalLabelPosition=middle;labelBackgroundColor=none;html=1;" parent="Haz_8EwUBin59iLyk_8Q-26" source="Haz_8EwUBin59iLyk_8Q-211" target="Haz_8EwUBin59iLyk_8Q-85" edge="1">
            <mxGeometry relative="1" as="geometry" />
          </mxCell>
        </UserObject>
        <UserObject label="" tags="simple pipeline forwarding" id="Haz_8EwUBin59iLyk_8Q-48">
          <mxCell style="edgeStyle=orthogonalEdgeStyle;rounded=0;sketch=0;jumpStyle=arc;jumpSize=4;orthogonalLoop=1;jettySize=auto;exitX=0.834;exitY=0.001;exitDx=0;exitDy=0;entryX=1.001;entryY=0.427;entryDx=0;entryDy=0;entryPerimeter=0;shadow=0;endArrow=none;endFill=0;strokeColor=#3333FF;strokeWidth=1;fontSize=6;exitPerimeter=0;fontFamily=sans-serif;verticalAlign=middle;align=center;labelPosition=center;verticalLabelPosition=middle;labelBackgroundColor=none;html=1;" parent="Haz_8EwUBin59iLyk_8Q-26" source="Haz_8EwUBin59iLyk_8Q-211" target="Haz_8EwUBin59iLyk_8Q-85" edge="1">
            <mxGeometry relative="1" as="geometry" />
          </mxCell>
        </UserObject>
        <UserObject label="" tags="simple pipeline forwarding" id="Haz_8EwUBin59iLyk_8Q-49">
          <mxCell style="edgeStyle=orthogonalEdgeStyle;rounded=0;sketch=0;jumpStyle=arc;jumpSize=4;orthogonalLoop=1;jettySize=auto;exitX=0.5;exitY=0.065;exitDx=0;exitDy=0;entryX=1.002;entryY=0.344;entryDx=0;entryDy=0;entryPerimeter=0;shadow=0;endArrow=none;endFill=0;strokeColor=#3333FF;strokeWidth=1;fontSize=6;fontFamily=sans-serif;verticalAlign=middle;align=center;labelPosition=center;verticalLabelPosition=middle;labelBackgroundColor=none;html=1;exitPerimeter=0;" parent="Haz_8EwUBin59iLyk_8Q-26" source="Haz_8EwUBin59iLyk_8Q-112" target="Haz_8EwUBin59iLyk_8Q-85" edge="1">
            <mxGeometry relative="1" as="geometry">
              <Array as="points">
                <mxPoint x="697" y="113" />
                <mxPoint x="471" y="113" />
              </Array>
              <mxPoint x="695.1366906474822" y="255.28720035554574" as="sourcePoint" />
            </mxGeometry>
          </mxCell>
        </UserObject>
        <UserObject label="" tags="simple pipeline forwarding" id="Haz_8EwUBin59iLyk_8Q-51">
          <mxCell style="edgeStyle=orthogonalEdgeStyle;rounded=0;sketch=0;jumpStyle=sharp;orthogonalLoop=1;jettySize=auto;shadow=0;endArrow=none;endFill=0;strokeColor=#000000;strokeWidth=3;fontSize=6;fontFamily=sans-serif;verticalAlign=middle;align=center;labelPosition=center;verticalLabelPosition=middle;labelBackgroundColor=none;html=1;" parent="Haz_8EwUBin59iLyk_8Q-26" target="Haz_8EwUBin59iLyk_8Q-56" edge="1">
            <mxGeometry relative="1" as="geometry">
              <mxPoint x="516" y="278" as="sourcePoint" />
            </mxGeometry>
          </mxCell>
        </UserObject>
        <UserObject label="" tags="simple pipeline forwarding" id="Haz_8EwUBin59iLyk_8Q-52">
          <mxCell style="edgeStyle=orthogonalEdgeStyle;rounded=0;sketch=0;jumpStyle=sharp;orthogonalLoop=1;jettySize=auto;entryX=0;entryY=0.75;entryDx=0;entryDy=0;entryPerimeter=0;shadow=0;endArrow=none;endFill=0;strokeColor=#3333FF;strokeWidth=1;fontFamily=sans-serif;fontSize=6;verticalAlign=middle;align=center;labelPosition=center;verticalLabelPosition=middle;labelBackgroundColor=none;html=1;exitX=1;exitY=0.4;exitDx=0;exitDy=0;exitPerimeter=0;" parent="Haz_8EwUBin59iLyk_8Q-26" source="Haz_8EwUBin59iLyk_8Q-180" target="Haz_8EwUBin59iLyk_8Q-84" edge="1">
            <mxGeometry relative="1" as="geometry">
              <Array as="points">
                <mxPoint x="522" y="268" />
                <mxPoint x="522" y="190" />
              </Array>
              <mxPoint x="516" y="266" as="sourcePoint" />
            </mxGeometry>
          </mxCell>
        </UserObject>
        <UserObject label="" tags="simple pipeline forwarding" id="Haz_8EwUBin59iLyk_8Q-53">
          <mxCell style="edgeStyle=orthogonalEdgeStyle;rounded=0;sketch=0;jumpStyle=sharp;orthogonalLoop=1;jettySize=auto;exitX=0.5;exitY=0;exitDx=0;exitDy=0;entryX=0.5;entryY=1;entryDx=0;entryDy=0;shadow=0;endArrow=none;endFill=0;strokeColor=#000000;strokeWidth=3;fontSize=6;fontFamily=sans-serif;verticalAlign=middle;align=center;labelPosition=center;verticalLabelPosition=middle;labelBackgroundColor=none;html=1;" parent="Haz_8EwUBin59iLyk_8Q-26" target="Haz_8EwUBin59iLyk_8Q-39" edge="1">
            <mxGeometry relative="1" as="geometry">
              <Array as="points">
                <mxPoint x="39" y="403" />
              </Array>
              <mxPoint x="30.999999999999773" y="403.4599999999999" as="sourcePoint" />
              <mxPoint x="39" y="305" as="targetPoint" />
            </mxGeometry>
          </mxCell>
        </UserObject>
        <UserObject label="" tags="simple pipeline forwarding" id="Haz_8EwUBin59iLyk_8Q-55">
          <mxCell style="edgeStyle=orthogonalEdgeStyle;rounded=0;sketch=0;jumpStyle=sharp;orthogonalLoop=1;jettySize=auto;exitX=1;exitY=0.5;exitDx=0;exitDy=0;entryX=0;entryY=0.25;entryDx=0;entryDy=0;shadow=0;endArrow=none;endFill=0;strokeColor=#000000;strokeWidth=3;fontSize=6;fontFamily=sans-serif;verticalAlign=middle;align=center;labelPosition=center;verticalLabelPosition=middle;labelBackgroundColor=none;html=1;" parent="Haz_8EwUBin59iLyk_8Q-26" source="Haz_8EwUBin59iLyk_8Q-56" target="Haz_8EwUBin59iLyk_8Q-211" edge="1">
            <mxGeometry relative="1" as="geometry" />
          </mxCell>
        </UserObject>
        <UserObject label="" tags="simple pipeline forwarding" id="Haz_8EwUBin59iLyk_8Q-56">
          <mxCell style="ellipse;whiteSpace=wrap;aspect=fixed;rounded=1;fontSize=6;align=center;fillColor=#000000;fontFamily=sans-serif;verticalAlign=middle;labelPosition=center;verticalLabelPosition=middle;labelBackgroundColor=none;html=1;" parent="Haz_8EwUBin59iLyk_8Q-26" vertex="1">
            <mxGeometry x="568" y="275" width="7" height="7" as="geometry" />
          </mxCell>
        </UserObject>
        <UserObject label="" tags="simple pipeline forwarding" id="Haz_8EwUBin59iLyk_8Q-57">
          <mxCell style="edgeStyle=orthogonalEdgeStyle;rounded=0;sketch=0;jumpStyle=sharp;orthogonalLoop=1;jettySize=auto;shadow=0;endArrow=none;endFill=0;strokeColor=#000000;strokeWidth=3;fontSize=6;exitX=0.5;exitY=1;exitDx=0;exitDy=0;fontFamily=sans-serif;verticalAlign=middle;align=center;labelPosition=center;verticalLabelPosition=middle;labelBackgroundColor=none;html=1;entryX=0;entryY=0.5;entryDx=0;entryDy=0;" parent="Haz_8EwUBin59iLyk_8Q-26" source="Haz_8EwUBin59iLyk_8Q-59" target="Haz_8EwUBin59iLyk_8Q-87" edge="1">
            <mxGeometry relative="1" as="geometry">
              <Array as="points">
                <mxPoint x="291" y="432" />
              </Array>
              <mxPoint x="297" y="432" as="targetPoint" />
            </mxGeometry>
          </mxCell>
        </UserObject>
        <UserObject label="" tags="simple pipeline forwarding" id="Haz_8EwUBin59iLyk_8Q-58">
          <mxCell style="edgeStyle=orthogonalEdgeStyle;rounded=0;sketch=0;jumpStyle=arc;jumpSize=4;orthogonalLoop=1;jettySize=auto;entryX=0;entryY=0.65;entryDx=0;entryDy=0;shadow=0;endArrow=none;endFill=0;strokeColor=#000000;strokeWidth=3;fontSize=6;entryPerimeter=0;fontFamily=sans-serif;verticalAlign=middle;align=center;labelPosition=center;verticalLabelPosition=middle;labelBackgroundColor=none;html=1;exitX=1;exitY=0.5;exitDx=0;exitDy=0;startArrow=none;startSize=6;jumpSize=4;" parent="Haz_8EwUBin59iLyk_8Q-26" source="uWEq7-W_z53UrtFael4O-38" edge="1" target="Haz_8EwUBin59iLyk_8Q-113">
            <mxGeometry relative="1" as="geometry">
              <Array as="points">
                <mxPoint x="467" y="416" />
                <mxPoint x="467" y="310" />
                <mxPoint x="472" y="310" />
              </Array>
              <mxPoint x="356.5" y="414" as="sourcePoint" />
              <mxPoint x="471.6388888888889" y="311.2500000000001" as="targetPoint" />
            </mxGeometry>
          </mxCell>
        </UserObject>
        <UserObject label="" tags="simple pipeline forwarding" id="Haz_8EwUBin59iLyk_8Q-59">
          <mxCell style="rounded=0;whiteSpace=wrap;fillColor=#000000;fontSize=6;align=center;fontFamily=sans-serif;verticalAlign=middle;labelPosition=center;verticalLabelPosition=middle;labelBackgroundColor=none;html=1;" parent="Haz_8EwUBin59iLyk_8Q-26" vertex="1">
            <mxGeometry x="290" y="415" width="2" height="2" as="geometry" />
          </mxCell>
        </UserObject>
        <UserObject label="" tags="simple pipeline forwarding" id="Haz_8EwUBin59iLyk_8Q-61">
          <mxCell style="rounded=0;whiteSpace=wrap;fillColor=#000000;fontSize=6;align=center;fontFamily=sans-serif;verticalAlign=middle;labelPosition=center;verticalLabelPosition=middle;labelBackgroundColor=none;html=1;" parent="Haz_8EwUBin59iLyk_8Q-26" vertex="1">
            <mxGeometry x="190" y="389" width="2" height="2" as="geometry" />
          </mxCell>
        </UserObject>
        <UserObject label="" tags="simple pipeline forwarding" id="Haz_8EwUBin59iLyk_8Q-62">
          <mxCell style="edgeStyle=orthogonalEdgeStyle;rounded=0;sketch=0;jumpStyle=arc;jumpSize=4;orthogonalLoop=1;jettySize=auto;entryX=0;entryY=0.5;entryDx=0;entryDy=0;shadow=0;endArrow=none;endFill=0;strokeColor=#000000;strokeWidth=3;fontSize=6;fontFamily=sans-serif;verticalAlign=middle;align=center;labelPosition=center;verticalLabelPosition=middle;labelBackgroundColor=none;html=1;exitX=1;exitY=0.5;exitDx=0;exitDy=0;" parent="Haz_8EwUBin59iLyk_8Q-26" source="Haz_8EwUBin59iLyk_8Q-64" target="Haz_8EwUBin59iLyk_8Q-45" edge="1">
            <mxGeometry relative="1" as="geometry">
              <mxPoint x="197" y="412" as="sourcePoint" />
              <Array as="points">
                <mxPoint x="210" y="412" />
                <mxPoint x="210" y="412" />
              </Array>
            </mxGeometry>
          </mxCell>
        </UserObject>
        <UserObject label="" tags="simple pipeline forwarding" id="Haz_8EwUBin59iLyk_8Q-63">
          <mxCell style="edgeStyle=orthogonalEdgeStyle;rounded=0;sketch=0;jumpStyle=sharp;orthogonalLoop=1;jettySize=auto;entryX=0.5;entryY=1;entryDx=0;entryDy=0;shadow=0;endArrow=none;endFill=0;strokeColor=#000000;strokeWidth=3;fontSize=6;fontFamily=sans-serif;verticalAlign=middle;align=center;labelPosition=center;verticalLabelPosition=middle;labelBackgroundColor=none;html=1;exitX=0.538;exitY=0.516;exitDx=0;exitDy=0;exitPerimeter=0;" parent="Haz_8EwUBin59iLyk_8Q-26" source="Haz_8EwUBin59iLyk_8Q-64" target="Haz_8EwUBin59iLyk_8Q-61" edge="1">
            <mxGeometry relative="1" as="geometry" />
          </mxCell>
        </UserObject>
        <UserObject label="" tags="simple pipeline forwarding" id="Haz_8EwUBin59iLyk_8Q-64">
          <mxCell style="rounded=0;whiteSpace=wrap;fillColor=#000000;fontSize=6;align=center;fontFamily=sans-serif;verticalAlign=middle;labelPosition=center;verticalLabelPosition=middle;labelBackgroundColor=none;html=1;" parent="Haz_8EwUBin59iLyk_8Q-26" vertex="1">
            <mxGeometry x="190" y="411" width="2" height="2" as="geometry" />
          </mxCell>
        </UserObject>
        <UserObject label="" tags="simple pipeline forwarding" id="Haz_8EwUBin59iLyk_8Q-65">
          <mxCell style="edgeStyle=orthogonalEdgeStyle;rounded=0;sketch=0;jumpStyle=sharp;orthogonalLoop=1;jettySize=auto;entryX=0.5;entryY=0;entryDx=0;entryDy=0;shadow=0;endArrow=none;endFill=0;strokeColor=#000000;strokeWidth=3;fontSize=6;fontFamily=sans-serif;verticalAlign=middle;align=center;labelPosition=center;verticalLabelPosition=middle;labelBackgroundColor=none;html=1;" parent="Haz_8EwUBin59iLyk_8Q-26" source="Haz_8EwUBin59iLyk_8Q-67" target="Haz_8EwUBin59iLyk_8Q-61" edge="1">
            <mxGeometry relative="1" as="geometry" />
          </mxCell>
        </UserObject>
        <UserObject label="" tags="simple pipeline forwarding" id="Haz_8EwUBin59iLyk_8Q-66">
          <mxCell style="edgeStyle=orthogonalEdgeStyle;rounded=0;sketch=0;jumpStyle=sharp;orthogonalLoop=1;jettySize=auto;entryX=-0.001;entryY=0.379;entryDx=0;entryDy=0;entryPerimeter=0;shadow=0;endArrow=none;endFill=0;strokeColor=#000000;strokeWidth=1;fontSize=6;fontFamily=sans-serif;verticalAlign=middle;align=center;labelPosition=center;verticalLabelPosition=middle;labelBackgroundColor=none;html=1;" parent="Haz_8EwUBin59iLyk_8Q-26" source="Haz_8EwUBin59iLyk_8Q-67" target="Haz_8EwUBin59iLyk_8Q-40" edge="1">
            <mxGeometry relative="1" as="geometry" />
          </mxCell>
        </UserObject>
        <UserObject label="" tags="simple pipeline forwarding" id="Haz_8EwUBin59iLyk_8Q-67">
          <mxCell style="rounded=0;whiteSpace=wrap;fillColor=#000000;fontSize=6;align=center;fontFamily=sans-serif;verticalAlign=middle;labelPosition=center;verticalLabelPosition=middle;labelBackgroundColor=none;html=1;" parent="Haz_8EwUBin59iLyk_8Q-26" vertex="1">
            <mxGeometry x="190" y="269" width="2" height="2" as="geometry" />
          </mxCell>
        </UserObject>
        <UserObject label="" tags="simple pipeline forwarding" id="Haz_8EwUBin59iLyk_8Q-68">
          <mxCell style="edgeStyle=orthogonalEdgeStyle;rounded=0;sketch=0;jumpStyle=sharp;orthogonalLoop=1;jettySize=auto;exitX=0.5;exitY=0;exitDx=0;exitDy=0;entryX=0.497;entryY=1.045;entryDx=0;entryDy=0;entryPerimeter=0;shadow=0;endArrow=none;endFill=0;strokeColor=#000000;strokeWidth=3;fontSize=6;fontFamily=sans-serif;verticalAlign=middle;align=center;labelPosition=center;verticalLabelPosition=middle;labelBackgroundColor=none;html=1;" parent="Haz_8EwUBin59iLyk_8Q-26" source="Haz_8EwUBin59iLyk_8Q-71" target="Haz_8EwUBin59iLyk_8Q-74" edge="1">
            <mxGeometry relative="1" as="geometry" />
          </mxCell>
        </UserObject>
        <UserObject label="" tags="simple pipeline forwarding" id="Haz_8EwUBin59iLyk_8Q-69">
          <mxCell style="edgeStyle=orthogonalEdgeStyle;rounded=0;sketch=0;jumpStyle=sharp;orthogonalLoop=1;jettySize=auto;exitX=0.5;exitY=1;exitDx=0;exitDy=0;entryX=0.5;entryY=0;entryDx=0;entryDy=0;shadow=0;endArrow=none;endFill=0;strokeColor=#000000;strokeWidth=3;fontSize=6;fontFamily=sans-serif;verticalAlign=middle;align=center;labelPosition=center;verticalLabelPosition=middle;labelBackgroundColor=none;html=1;" parent="Haz_8EwUBin59iLyk_8Q-26" source="Haz_8EwUBin59iLyk_8Q-71" target="Haz_8EwUBin59iLyk_8Q-67" edge="1">
            <mxGeometry relative="1" as="geometry">
              <mxPoint x="185" y="261" as="sourcePoint" />
              <mxPoint x="185" y="269" as="targetPoint" />
            </mxGeometry>
          </mxCell>
        </UserObject>
        <UserObject label="" tags="simple pipeline forwarding" id="Haz_8EwUBin59iLyk_8Q-70">
          <mxCell style="edgeStyle=orthogonalEdgeStyle;rounded=0;sketch=0;jumpStyle=sharp;orthogonalLoop=1;jettySize=auto;exitX=0;exitY=0.5;exitDx=0;exitDy=0;entryX=1.001;entryY=0.245;entryDx=0;entryDy=0;entryPerimeter=0;shadow=0;endArrow=none;endFill=0;strokeColor=#000000;strokeWidth=3;fontSize=6;fontFamily=sans-serif;verticalAlign=middle;align=center;labelPosition=center;verticalLabelPosition=middle;labelBackgroundColor=none;html=1;" parent="Haz_8EwUBin59iLyk_8Q-26" source="Haz_8EwUBin59iLyk_8Q-71" target="Haz_8EwUBin59iLyk_8Q-208" edge="1">
            <mxGeometry relative="1" as="geometry" />
          </mxCell>
        </UserObject>
        <UserObject label="" tags="simple pipeline forwarding" id="Haz_8EwUBin59iLyk_8Q-71">
          <mxCell style="rounded=0;whiteSpace=wrap;fillColor=#000000;fontSize=6;align=center;fontFamily=sans-serif;verticalAlign=middle;labelPosition=center;verticalLabelPosition=middle;labelBackgroundColor=none;html=1;" parent="Haz_8EwUBin59iLyk_8Q-26" vertex="1">
            <mxGeometry x="190" y="258" width="2" height="2" as="geometry" />
          </mxCell>
        </UserObject>
        <UserObject label="" tags="simple pipeline forwarding" id="Haz_8EwUBin59iLyk_8Q-72">
          <mxCell style="edgeStyle=orthogonalEdgeStyle;rounded=0;sketch=0;jumpStyle=sharp;orthogonalLoop=1;jettySize=auto;entryX=0.003;entryY=0.131;entryDx=0;entryDy=0;entryPerimeter=0;shadow=0;endArrow=none;endFill=0;strokeColor=#000000;strokeWidth=1;fontSize=6;fontFamily=sans-serif;verticalAlign=middle;align=center;labelPosition=center;verticalLabelPosition=middle;labelBackgroundColor=none;html=1;" parent="Haz_8EwUBin59iLyk_8Q-26" source="Haz_8EwUBin59iLyk_8Q-74" target="Haz_8EwUBin59iLyk_8Q-40" edge="1">
            <mxGeometry relative="1" as="geometry" />
          </mxCell>
        </UserObject>
        <UserObject label="" tags="simple pipeline forwarding" id="Haz_8EwUBin59iLyk_8Q-73">
          <mxCell style="edgeStyle=orthogonalEdgeStyle;rounded=0;sketch=0;jumpStyle=sharp;orthogonalLoop=1;jettySize=auto;entryX=0.5;entryY=1;entryDx=0;entryDy=0;shadow=0;endArrow=none;endFill=0;strokeColor=#000000;strokeWidth=3;fontSize=6;fontFamily=sans-serif;verticalAlign=middle;align=center;labelPosition=center;verticalLabelPosition=middle;labelBackgroundColor=none;html=1;startArrow=none;exitX=0.25;exitY=0;exitDx=0;exitDy=0;" parent="Haz_8EwUBin59iLyk_8Q-26" source="uWEq7-W_z53UrtFael4O-42" target="Haz_8EwUBin59iLyk_8Q-75" edge="1">
            <mxGeometry relative="1" as="geometry" />
          </mxCell>
        </UserObject>
        <UserObject label="" tags="simple pipeline forwarding" id="Haz_8EwUBin59iLyk_8Q-74">
          <mxCell style="rounded=0;whiteSpace=wrap;fillColor=#000000;fontSize=6;align=center;fontFamily=sans-serif;verticalAlign=middle;labelPosition=center;verticalLabelPosition=middle;labelBackgroundColor=none;html=1;" parent="Haz_8EwUBin59iLyk_8Q-26" vertex="1">
            <mxGeometry x="190" y="249" width="2" height="2" as="geometry" />
          </mxCell>
        </UserObject>
        <UserObject label="" tags="simple pipeline forwarding" id="Haz_8EwUBin59iLyk_8Q-75">
          <mxCell style="rounded=0;whiteSpace=wrap;fillColor=#000000;fontSize=6;align=center;fontFamily=sans-serif;verticalAlign=middle;labelPosition=center;verticalLabelPosition=middle;labelBackgroundColor=none;html=1;" parent="Haz_8EwUBin59iLyk_8Q-26" vertex="1">
            <mxGeometry x="190" y="123" width="2" height="2" as="geometry" />
          </mxCell>
        </UserObject>
        <UserObject label="" tags="simple pipeline forwarding" id="Haz_8EwUBin59iLyk_8Q-76">
          <mxCell style="edgeStyle=orthogonalEdgeStyle;rounded=0;sketch=0;jumpStyle=sharp;orthogonalLoop=1;jettySize=auto;exitX=0.5;exitY=0;exitDx=0;exitDy=0;entryX=1;entryY=0.5;entryDx=0;entryDy=0;entryPerimeter=0;shadow=0;endArrow=none;endFill=0;strokeColor=#000000;strokeWidth=3;fontSize=6;fontFamily=sans-serif;verticalAlign=middle;align=center;labelPosition=center;verticalLabelPosition=middle;labelBackgroundColor=none;html=1;" parent="Haz_8EwUBin59iLyk_8Q-26" source="Haz_8EwUBin59iLyk_8Q-79" target="Haz_8EwUBin59iLyk_8Q-219" edge="1">
            <mxGeometry relative="1" as="geometry">
              <Array as="points">
                <mxPoint x="131" y="350" />
              </Array>
              <mxPoint x="113.05555555555554" y="350" as="targetPoint" />
            </mxGeometry>
          </mxCell>
        </UserObject>
        <UserObject label="" tags="simple pipeline forwarding" id="Haz_8EwUBin59iLyk_8Q-77">
          <mxCell style="edgeStyle=orthogonalEdgeStyle;rounded=0;sketch=0;jumpStyle=arc;jumpSize=4;orthogonalLoop=1;jettySize=auto;entryX=0;entryY=0.35;entryDx=0;entryDy=0;entryPerimeter=0;shadow=0;endArrow=none;endFill=0;strokeColor=#000000;strokeWidth=3;fontSize=6;fontFamily=sans-serif;verticalAlign=middle;align=center;labelPosition=center;verticalLabelPosition=middle;labelBackgroundColor=none;html=1;" parent="Haz_8EwUBin59iLyk_8Q-26" source="Haz_8EwUBin59iLyk_8Q-79" target="dQApTKY7MUPNvbngPjsP-5" edge="1">
            <mxGeometry relative="1" as="geometry">
              <Array as="points">
                <mxPoint x="11" y="380" />
                <mxPoint x="11" y="400" />
              </Array>
              <mxPoint x="21.884259999999813" y="399.3222999999999" as="targetPoint" />
            </mxGeometry>
          </mxCell>
        </UserObject>
        <UserObject label="" tags="simple pipeline forwarding" id="Haz_8EwUBin59iLyk_8Q-78">
          <mxCell style="edgeStyle=orthogonalEdgeStyle;rounded=0;sketch=0;jumpStyle=arc;jumpSize=4;orthogonalLoop=1;jettySize=auto;html=1;exitX=0.5;exitY=1;exitDx=0;exitDy=0;shadow=0;labelBackgroundColor=none;endArrow=none;endFill=0;strokeWidth=3;fontFamily=sans-serif;fontSize=6;entryX=0;entryY=0.8;entryDx=0;entryDy=0;entryPerimeter=0;" parent="Haz_8EwUBin59iLyk_8Q-26" source="Haz_8EwUBin59iLyk_8Q-79" target="Haz_8EwUBin59iLyk_8Q-222" edge="1">
            <mxGeometry relative="1" as="geometry">
              <mxPoint x="338" y="456" as="targetPoint" />
            </mxGeometry>
          </mxCell>
        </UserObject>
        <UserObject label="" tags="simple pipeline forwarding" id="Haz_8EwUBin59iLyk_8Q-79">
          <mxCell style="rounded=0;whiteSpace=wrap;fillColor=#000000;fontSize=6;align=center;fontFamily=sans-serif;verticalAlign=middle;labelPosition=center;verticalLabelPosition=middle;labelBackgroundColor=none;html=1;" parent="Haz_8EwUBin59iLyk_8Q-26" vertex="1">
            <mxGeometry x="130" y="379" width="2" height="2" as="geometry" />
          </mxCell>
        </UserObject>
        <UserObject label="" tags="simple pipeline forwarding" id="Haz_8EwUBin59iLyk_8Q-84">
          <mxCell style="shape=or;whiteSpace=wrap;rounded=1;fontFamily=sans-serif;fontSize=6;align=center;verticalAlign=middle;labelPosition=center;verticalLabelPosition=middle;labelBackgroundColor=none;html=1;" parent="Haz_8EwUBin59iLyk_8Q-26" vertex="1">
            <mxGeometry x="559" y="183" width="10" height="10" as="geometry" />
          </mxCell>
        </UserObject>
        <UserObject label="" tags="simple pipeline forwarding" id="Haz_8EwUBin59iLyk_8Q-86">
          <mxCell style="group" parent="Haz_8EwUBin59iLyk_8Q-26" vertex="1" connectable="0">
            <mxGeometry x="302.5" y="424" width="18" height="14" as="geometry" />
          </mxCell>
        </UserObject>
        <UserObject label="" tags="simple pipeline forwarding" id="Haz_8EwUBin59iLyk_8Q-87">
          <mxCell style="rounded=1;gradientColor=none;spacing=0;spacingBottom=1;fontStyle=1;fontSize=6;fontFamily=sans-serif;verticalAlign=middle;align=center;labelPosition=center;verticalLabelPosition=middle;labelBackgroundColor=none;" parent="Haz_8EwUBin59iLyk_8Q-86" vertex="1">
            <mxGeometry y="1" width="18" height="14" as="geometry" />
          </mxCell>
        </UserObject>
        <UserObject label="" tags="simple pipeline forwarding" id="Haz_8EwUBin59iLyk_8Q-88">
          <mxCell style="group" parent="Haz_8EwUBin59iLyk_8Q-86" vertex="1" connectable="0">
            <mxGeometry x="3.5" y="4" width="11" height="8" as="geometry" />
          </mxCell>
        </UserObject>
        <UserObject label="2" tags="simple pipeline forwarding" id="Haz_8EwUBin59iLyk_8Q-89">
          <mxCell style="text;strokeColor=none;fillColor=none;align=center;verticalAlign=middle;rounded=0;fontSize=6;fontFamily=sans-serif;spacing=0;fontStyle=1;labelPosition=center;verticalLabelPosition=middle;labelBackgroundColor=none;spacingBottom=0;" parent="Haz_8EwUBin59iLyk_8Q-88" vertex="1">
            <mxGeometry x="3" width="8" height="8" as="geometry" />
          </mxCell>
        </UserObject>
        <UserObject label="" tags="simple pipeline forwarding" id="Haz_8EwUBin59iLyk_8Q-90">
          <mxCell style="shape=stencil(nVLLDsIgEPwa7gia9GpQ/wPbrcUqNBRt/XuBbdPWPg4mJGRmdoZlgXBRF7ICwqiWTyD8RBiLixYIEoqwQXjooKwrSB1yuWohQ7p21pTQqMx1dqULsMoFlZ8JPfqasLi4yrS8WfPS2UTo5YfScDdKexS3GIbl8SDCLou+cQO+6aGRHds2VjJUzoRefpp3GFI7ncIHId2KHt9oSJgG7P9I+Okh2YzgwvMrV+yHtmCOtpWX4iI3FhYFb5ppkcW/Fokv);whiteSpace=wrap;fontFamily=sans-serif;fontSize=6;verticalAlign=middle;align=center;labelPosition=center;verticalLabelPosition=middle;labelBackgroundColor=none;html=1;aspect=fixed;" parent="Haz_8EwUBin59iLyk_8Q-88" vertex="1">
            <mxGeometry x="1.3999999999999773" y="2.5" width="3" height="3" as="geometry" />
          </mxCell>
        </UserObject>
        <UserObject label="" tags="simple pipeline forwarding" id="Haz_8EwUBin59iLyk_8Q-91">
          <mxCell style="shape=stencil(nVLLDsIgEPwa7gia9GpQ/wPbrcUqNBRt/XuBbdPWPg4mJGRmdoZlgXBRF7ICwqiWTyD8RBiLixYIEoqwQXjooKwrSB1yuWohQ7p21pTQqMx1dqULsMoFlZ8JPfqasLi4yrS8WfPS2UTo5YfScDdKexS3GIbl8SDCLou+cQO+6aGRHds2VjJUzoRefpp3GFI7ncIHId2KHt9oSJgG7P9I+Okh2YzgwvMrV+yHtmCOtpWX4iI3FhYFb5ppkcW/Fokv);whiteSpace=wrap;fontFamily=sans-serif;fontSize=6;verticalAlign=middle;align=center;labelPosition=center;verticalLabelPosition=middle;labelBackgroundColor=none;html=1;aspect=fixed;" parent="Haz_8EwUBin59iLyk_8Q-88" vertex="1">
            <mxGeometry y="2.5" width="3" height="3" as="geometry" />
          </mxCell>
        </UserObject>
        <UserObject label="" tags="simple pipeline forwarding" id="Haz_8EwUBin59iLyk_8Q-92">
          <mxCell style="rounded=0;orthogonalLoop=1;jettySize=auto;html=1;exitX=1;exitY=0.5;exitDx=0;exitDy=0;entryX=0;entryY=0.2;entryDx=0;entryDy=0;entryPerimeter=0;shadow=0;fontFamily=sans-serif;fontSize=6;strokeWidth=3;labelBackgroundColor=none;endFill=0;endArrow=none;sketch=0;" parent="Haz_8EwUBin59iLyk_8Q-26" source="Haz_8EwUBin59iLyk_8Q-87" target="Haz_8EwUBin59iLyk_8Q-222" edge="1">
            <mxGeometry relative="1" as="geometry">
              <mxPoint x="341.49999999999994" y="432.29999999999995" as="targetPoint" />
            </mxGeometry>
          </mxCell>
        </UserObject>
        <UserObject label="Rd" tags="simple pipeline forwarding" id="Haz_8EwUBin59iLyk_8Q-95">
          <mxCell style="text;strokeColor=none;fillColor=none;align=center;verticalAlign=middle;rounded=0;fontSize=6;fontFamily=sans-serif;spacing=0;fontStyle=1;labelPosition=center;verticalLabelPosition=middle;labelBackgroundColor=none;spacingBottom=1;" parent="Haz_8EwUBin59iLyk_8Q-26" vertex="1">
            <mxGeometry x="317" y="382" width="8" height="8" as="geometry" />
          </mxCell>
        </UserObject>
        <UserObject label="00" tags="simple pipeline forwarding" component="reg-id-value" source="rs1" id="Haz_8EwUBin59iLyk_8Q-101">
          <mxCell style="rounded=1;fontFamily=sans-serif;fontSize=6;arcSize=1;spacing=0;" parent="Haz_8EwUBin59iLyk_8Q-26" vertex="1">
            <mxGeometry x="199" y="246" width="14" height="8" as="geometry" />
          </mxCell>
        </UserObject>
        <UserObject label="00" tags="simple pipeline forwarding" component="reg-id-value" source="rs2" id="Haz_8EwUBin59iLyk_8Q-102">
          <mxCell style="rounded=1;fontFamily=sans-serif;fontSize=6;arcSize=1;spacing=0;" parent="Haz_8EwUBin59iLyk_8Q-26" vertex="1">
            <mxGeometry x="199" y="266" width="14" height="8" as="geometry" />
          </mxCell>
        </UserObject>
        <UserObject label="Rs1" tags="simple pipeline forwarding" id="Haz_8EwUBin59iLyk_8Q-103">
          <mxCell style="text;strokeColor=none;fillColor=none;align=center;verticalAlign=middle;rounded=0;fontSize=6;fontFamily=sans-serif;spacing=0;fontStyle=1;labelPosition=center;verticalLabelPosition=middle;labelBackgroundColor=none;spacingBottom=1;" parent="Haz_8EwUBin59iLyk_8Q-26" vertex="1">
            <mxGeometry x="214" y="241" width="12" height="8" as="geometry" />
          </mxCell>
        </UserObject>
        <UserObject label="Rs2" tags="simple pipeline forwarding" id="Haz_8EwUBin59iLyk_8Q-104">
          <mxCell style="text;strokeColor=none;fillColor=none;align=center;verticalAlign=middle;rounded=0;fontSize=6;fontFamily=sans-serif;spacing=0;fontStyle=1;labelPosition=center;verticalLabelPosition=middle;labelBackgroundColor=none;spacingBottom=1;" parent="Haz_8EwUBin59iLyk_8Q-26" vertex="1">
            <mxGeometry x="214" y="261" width="12" height="8" as="geometry" />
          </mxCell>
        </UserObject>
        <UserObject label="00000000" tags="pipeline forwarding" component="reg-value" source="alu-res" id="Haz_8EwUBin59iLyk_8Q-105">
          <mxCell style="rounded=1;fontFamily=sans-serif;fontSize=6;arcSize=1;align=center;direction=south;horizontal=0;spacing=0;" parent="Haz_8EwUBin59iLyk_8Q-26" vertex="1">
            <mxGeometry x="526" y="248" width="7" height="64" as="geometry" />
          </mxCell>
        </UserObject>
        <UserObject label="00000000" tags="simple pipeline forwarding" component="reg-value" source="mem-write-val" id="Haz_8EwUBin59iLyk_8Q-106">
          <mxCell style="rounded=1;fontFamily=sans-serif;fontSize=6;arcSize=1;align=center;direction=south;spacing=0;horizontal=0;" parent="Haz_8EwUBin59iLyk_8Q-26" vertex="1">
            <mxGeometry x="557" y="228.00000000000006" width="7" height="64" as="geometry" />
          </mxCell>
        </UserObject>
        <UserObject label="" tags="forwarding" id="Haz_8EwUBin59iLyk_8Q-107">
          <mxCell style="edgeStyle=none;rounded=0;sketch=0;jumpStyle=sharp;orthogonalLoop=1;jettySize=auto;html=1;exitX=1;exitY=0.5;exitDx=0;exitDy=0;exitPerimeter=0;entryX=0;entryY=0.35;entryDx=0;entryDy=0;entryPerimeter=0;shadow=0;labelBackgroundColor=none;endArrow=none;endFill=0;strokeWidth=3;fontFamily=sans-serif;fontSize=6;" parent="Haz_8EwUBin59iLyk_8Q-26" source="Haz_8EwUBin59iLyk_8Q-199" target="Haz_8EwUBin59iLyk_8Q-113" edge="1">
            <mxGeometry relative="1" as="geometry">
              <mxPoint x="471.6388888888889" y="301.75" as="targetPoint" />
            </mxGeometry>
          </mxCell>
        </UserObject>
        <UserObject label="" tags="simple pipeline forwarding" id="Haz_8EwUBin59iLyk_8Q-109">
          <mxCell style="rounded=0;orthogonalLoop=1;jettySize=auto;html=1;exitX=1;exitY=0.5;exitDx=0;exitDy=0;exitPerimeter=0;entryX=0.012;entryY=0.841;entryDx=0;entryDy=0;entryPerimeter=0;fontFamily=sans-serif;fontSize=6;fontColor=#000000;shadow=0;strokeWidth=3;labelBackgroundColor=none;endFill=0;endArrow=none;sketch=0;elbow=vertical;" parent="Haz_8EwUBin59iLyk_8Q-26" source="Haz_8EwUBin59iLyk_8Q-113" target="Haz_8EwUBin59iLyk_8Q-180" edge="1">
            <mxGeometry relative="1" as="geometry">
              <mxPoint x="481.3611111111111" y="305.5" as="sourcePoint" />
            </mxGeometry>
          </mxCell>
        </UserObject>
        <UserObject label="00000000" tags="simple pipeline forwarding" component="reg-value" source="mem-read-val" id="Haz_8EwUBin59iLyk_8Q-111">
          <mxCell style="rounded=1;fontFamily=sans-serif;fontSize=6;arcSize=1;align=center;direction=south;spacing=0;horizontal=0;" parent="Haz_8EwUBin59iLyk_8Q-26" vertex="1">
            <mxGeometry x="648" y="258.00000000000006" width="7" height="64" as="geometry" />
          </mxCell>
        </UserObject>
        <UserObject label="" tags="simple pipeline forwarding" component="mux2" source="mem-to-reg" id="Haz_8EwUBin59iLyk_8Q-112">
          <mxCell style="shape=stencil(3VXBUoMwEP2aHHUgEStHB/Xm0RmvKWxtLE0YwLb+vUsW2kYk7aQeHGcYYN+yL5uXl8BE1ixlBYxHWq6BiQfG+fPLK8Yc3/CxJCyNKNxSKBIKZVNB3hK2UDsoCG7a2qxgq4q2L1d6CbVqu6x4ZNE9ftNdIsuN1sigjG6czFEeyaTSWBvtiKxv5bOProdmGH8K5rgN4Ii/cYS0MRTtSaKQTsY06ZQoIkNkSnWRzWW+eqvNhy5+HLyS3YqOEkO6VBrejdIY2YdtZg4bKH1zGqrXZgOTK3QOQTf8gUC4msReXc+imAVQuNNIA+bhMiQX9+DfLnublaaBk18tVFnSZvc4FvGRbyw6YTakNTV4XHh8vOCRdDhmYq+8JEsuKwy6uy2hUbxVJ0zv2vaKu2LH/mNhwnczh+TmL6zYb6iR3P0XNSw6sqlF6YdqgS8=);rounded=1;fontSize=7;align=right;spacingRight=0;spacingBottom=0;fontStyle=1;spacing=0;arcSize=19;" parent="Haz_8EwUBin59iLyk_8Q-26" vertex="1">
            <mxGeometry x="687" y="253" width="19" height="25" as="geometry" />
          </mxCell>
        </UserObject>
        <UserObject label="" tags="simple pipeline forwarding" source="exec-alu-src" component="mux2" id="Haz_8EwUBin59iLyk_8Q-113">
          <mxCell style="shape=stencil(3VXBUoMwEP2aHHUgEStHB/Xm0RmvKWxtLE0YwLb+vUsW2kYk7aQeHGcYYN+yL5uXl8BE1ixlBYxHWq6BiQfG+fPLK8Yc3/CxJCyNKNxSKBIKZVNB3hK2UDsoCG7a2qxgq4q2L1d6CbVqu6x4ZNE9ftNdIsuN1sigjG6czFEeyaTSWBvtiKxv5bOProdmGH8K5rgN4Ii/cYS0MRTtSaKQTsY06ZQoIkNkSnWRzWW+eqvNhy5+HLyS3YqOEkO6VBrejdIY2YdtZg4bKH1zGqrXZgOTK3QOQTf8gUC4msReXc+imAVQuNNIA+bhMiQX9+DfLnublaaBk18tVFnSZvc4FvGRbyw6YTakNTV4XHh8vOCRdDhmYq+8JEsuKwy6uy2hUbxVJ0zv2vaKu2LH/mNhwnczh+TmL6zYb6iR3P0XNSw6sqlF6YdqgS8=);rounded=1;fontSize=7;align=right;spacingRight=0;spacingBottom=0;fontStyle=1;spacing=0;arcSize=19;" parent="Haz_8EwUBin59iLyk_8Q-26" vertex="1">
            <mxGeometry x="467" y="294" width="19" height="25" as="geometry" />
          </mxCell>
        </UserObject>
        <UserObject label="" tags="forwarding" id="Haz_8EwUBin59iLyk_8Q-115">
          <mxCell style="edgeStyle=orthogonalEdgeStyle;rounded=0;sketch=0;jumpStyle=sharp;orthogonalLoop=1;jettySize=auto;html=1;exitX=0;exitY=0.25;exitDx=0;exitDy=0;exitPerimeter=0;shadow=0;labelBackgroundColor=none;endArrow=none;endFill=0;strokeWidth=3;fontFamily=sans-serif;fontSize=6;entryX=1;entryY=0.5;entryDx=0;entryDy=0;" parent="Haz_8EwUBin59iLyk_8Q-26" edge="1">
            <mxGeometry relative="1" as="geometry">
              <Array as="points">
                <mxPoint x="389" y="241" />
                <mxPoint x="389" y="251" />
                <mxPoint x="354" y="251" />
              </Array>
              <mxPoint x="431.2777777777778" y="241.49999999999994" as="sourcePoint" />
              <mxPoint x="354" y="250.00000000000006" as="targetPoint" />
            </mxGeometry>
          </mxCell>
        </UserObject>
        <UserObject label="EX/MEM" tags="pipeline forwarding" id="Haz_8EwUBin59iLyk_8Q-131">
          <mxCell style="text;strokeColor=none;fillColor=none;align=center;verticalAlign=middle;rounded=0;fontSize=6;fontFamily=sans-serif;spacing=0;fontStyle=1;labelPosition=center;verticalLabelPosition=middle;labelBackgroundColor=none;spacingBottom=1;" parent="Haz_8EwUBin59iLyk_8Q-26" vertex="1">
            <mxGeometry x="519" y="59" width="42" height="8" as="geometry" />
          </mxCell>
        </UserObject>
        <UserObject label="MEM/WB" tags="pipeline forwarding" id="Haz_8EwUBin59iLyk_8Q-132">
          <mxCell style="text;strokeColor=none;fillColor=none;align=center;verticalAlign=middle;rounded=0;fontSize=6;fontFamily=sans-serif;spacing=0;fontStyle=1;labelPosition=center;verticalLabelPosition=middle;labelBackgroundColor=none;spacingBottom=1;" parent="Haz_8EwUBin59iLyk_8Q-26" vertex="1">
            <mxGeometry x="641" y="59" width="42" height="8" as="geometry" />
          </mxCell>
        </UserObject>
        <UserObject label="" tags="simple pipeline forwarding" id="Haz_8EwUBin59iLyk_8Q-142">
          <mxCell style="edgeStyle=orthogonalEdgeStyle;rounded=0;sketch=0;jumpStyle=arc;jumpSize=4;orthogonalLoop=1;jettySize=auto;html=1;shadow=0;labelBackgroundColor=none;endArrow=none;endFill=0;strokeWidth=3;fontFamily=sans-serif;fontSize=6;entryX=0;entryY=0.75;entryDx=0;entryDy=0;jumpSize=4;" parent="Haz_8EwUBin59iLyk_8Q-26" source="Haz_8EwUBin59iLyk_8Q-143" target="Haz_8EwUBin59iLyk_8Q-40" edge="1">
            <mxGeometry relative="1" as="geometry">
              <Array as="points">
                <mxPoint x="173" y="509" />
                <mxPoint x="173" y="300" />
              </Array>
            </mxGeometry>
          </mxCell>
        </UserObject>
        <UserObject label="" tags="simple pipeline forwarding" id="Haz_8EwUBin59iLyk_8Q-143">
          <mxCell style="rounded=0;whiteSpace=wrap;fillColor=#000000;fontSize=6;align=center;fontFamily=sans-serif;verticalAlign=middle;labelPosition=center;verticalLabelPosition=middle;labelBackgroundColor=none;html=1;" parent="Haz_8EwUBin59iLyk_8Q-26" vertex="1">
            <mxGeometry x="411" y="508" width="2" height="2" as="geometry" />
          </mxCell>
        </UserObject>
        <UserObject label="" tags="forwarding" id="Haz_8EwUBin59iLyk_8Q-144">
          <mxCell style="edgeStyle=orthogonalEdgeStyle;rounded=0;sketch=0;jumpStyle=arc;jumpSize=4;orthogonalLoop=1;jettySize=auto;html=1;exitX=0.5;exitY=0;exitDx=0;exitDy=0;entryX=0;entryY=0.5;entryDx=0;entryDy=0;entryPerimeter=0;shadow=0;labelBackgroundColor=none;endArrow=none;endFill=0;strokeWidth=3;fontFamily=sans-serif;fontSize=6;" parent="Haz_8EwUBin59iLyk_8Q-26" source="Haz_8EwUBin59iLyk_8Q-145" target="Haz_8EwUBin59iLyk_8Q-116" edge="1">
            <mxGeometry relative="1" as="geometry" />
          </mxCell>
        </UserObject>
        <UserObject label="" tags="forwarding" id="Haz_8EwUBin59iLyk_8Q-145">
          <mxCell style="rounded=0;whiteSpace=wrap;fillColor=#000000;fontSize=6;align=center;fontFamily=sans-serif;verticalAlign=middle;labelPosition=center;verticalLabelPosition=middle;labelBackgroundColor=none;html=1;" parent="Haz_8EwUBin59iLyk_8Q-26" vertex="1">
            <mxGeometry x="410" y="302" width="2" height="2" as="geometry" />
          </mxCell>
        </UserObject>
        <UserObject label="" tags="forwarding" id="Haz_8EwUBin59iLyk_8Q-146">
          <mxCell style="edgeStyle=orthogonalEdgeStyle;rounded=0;sketch=0;jumpStyle=sharp;orthogonalLoop=1;jettySize=auto;html=1;exitX=1;exitY=0.5;exitDx=0;exitDy=0;entryX=0;entryY=0.75;entryDx=0;entryDy=0;entryPerimeter=0;shadow=0;labelBackgroundColor=none;endArrow=none;endFill=0;strokeWidth=3;fontFamily=sans-serif;fontSize=6;" parent="Haz_8EwUBin59iLyk_8Q-26" source="Haz_8EwUBin59iLyk_8Q-148" target="Haz_8EwUBin59iLyk_8Q-199" edge="1">
            <mxGeometry relative="1" as="geometry" />
          </mxCell>
        </UserObject>
        <UserObject label="" tags="forwarding" id="Haz_8EwUBin59iLyk_8Q-147">
          <mxCell style="edgeStyle=orthogonalEdgeStyle;rounded=0;sketch=0;jumpStyle=arc;jumpSize=4;orthogonalLoop=1;jettySize=auto;html=1;entryX=0;entryY=0.75;entryDx=0;entryDy=0;entryPerimeter=0;shadow=0;labelBackgroundColor=none;endArrow=none;endFill=0;strokeWidth=3;fontFamily=sans-serif;fontSize=6;" parent="Haz_8EwUBin59iLyk_8Q-26" source="Haz_8EwUBin59iLyk_8Q-148" target="Haz_8EwUBin59iLyk_8Q-116" edge="1">
            <mxGeometry relative="1" as="geometry">
              <Array as="points">
                <mxPoint x="421" y="258" />
              </Array>
            </mxGeometry>
          </mxCell>
        </UserObject>
        <UserObject label="" tags="forwarding" id="Haz_8EwUBin59iLyk_8Q-148">
          <mxCell style="rounded=0;whiteSpace=wrap;fillColor=#000000;fontSize=6;align=center;fontFamily=sans-serif;verticalAlign=middle;labelPosition=center;verticalLabelPosition=middle;labelBackgroundColor=none;html=1;" parent="Haz_8EwUBin59iLyk_8Q-26" vertex="1">
            <mxGeometry x="420" y="310" width="2" height="2" as="geometry" />
          </mxCell>
        </UserObject>
        <UserObject label="" tags="simple pipeline forwarding" id="Haz_8EwUBin59iLyk_8Q-149">
          <mxCell style="edgeStyle=orthogonalEdgeStyle;rounded=0;sketch=0;jumpStyle=sharp;orthogonalLoop=1;jettySize=auto;html=1;entryX=1;entryY=0.5;entryDx=0;entryDy=0;entryPerimeter=0;shadow=0;labelBackgroundColor=none;endArrow=none;endFill=0;strokeWidth=3;fontFamily=sans-serif;fontSize=6;exitX=1;exitY=0.5;exitDx=0;exitDy=0;" parent="Haz_8EwUBin59iLyk_8Q-26" source="Haz_8EwUBin59iLyk_8Q-143" edge="1" target="Haz_8EwUBin59iLyk_8Q-112">
            <mxGeometry relative="1" as="geometry">
              <mxPoint x="414" y="509" as="sourcePoint" />
              <mxPoint x="702.3611111111111" y="265.5" as="targetPoint" />
              <Array as="points">
                <mxPoint x="712" y="509" />
                <mxPoint x="712" y="265" />
              </Array>
            </mxGeometry>
          </mxCell>
        </UserObject>
        <UserObject label="" tags="forwarding" id="Haz_8EwUBin59iLyk_8Q-150">
          <mxCell style="rounded=0;whiteSpace=wrap;fillColor=#000000;fontSize=6;align=center;fontFamily=sans-serif;verticalAlign=middle;labelPosition=center;verticalLabelPosition=middle;labelBackgroundColor=none;html=1;" parent="Haz_8EwUBin59iLyk_8Q-26" vertex="1">
            <mxGeometry x="420" y="489" width="2" height="2" as="geometry" />
          </mxCell>
        </UserObject>
        <UserObject label="" tags="forwarding" id="Haz_8EwUBin59iLyk_8Q-151">
          <mxCell style="edgeStyle=orthogonalEdgeStyle;rounded=0;sketch=0;jumpStyle=arc;jumpSize=4;orthogonalLoop=1;jettySize=auto;html=1;exitX=1;exitY=0.5;exitDx=0;exitDy=0;exitPerimeter=0;entryX=1.007;entryY=0.373;entryDx=0;entryDy=0;entryPerimeter=0;shadow=0;labelBackgroundColor=none;endArrow=none;endFill=0;strokeWidth=3;fontFamily=sans-serif;fontSize=6;jumpSize=4;" parent="Haz_8EwUBin59iLyk_8Q-26" source="Haz_8EwUBin59iLyk_8Q-199" target="Haz_8EwUBin59iLyk_8Q-40" edge="1">
            <mxGeometry relative="1" as="geometry">
              <Array as="points">
                <mxPoint x="436" y="303" />
                <mxPoint x="436" y="295" />
                <mxPoint x="404" y="295" />
                <mxPoint x="404" y="270" />
                <mxPoint x="291" y="270" />
              </Array>
            </mxGeometry>
          </mxCell>
        </UserObject>
        <UserObject label="" tags="forwarding" id="Haz_8EwUBin59iLyk_8Q-152">
          <mxCell style="edgeStyle=orthogonalEdgeStyle;rounded=0;sketch=0;jumpStyle=arc;jumpSize=4;orthogonalLoop=1;jettySize=auto;html=1;exitX=1;exitY=0.5;exitDx=0;exitDy=0;entryX=0;entryY=0.5;entryDx=0;entryDy=0;entryPerimeter=0;shadow=0;labelBackgroundColor=none;endArrow=none;endFill=0;strokeWidth=3;fontFamily=sans-serif;fontSize=6;jumpSize=4;" parent="Haz_8EwUBin59iLyk_8Q-26" source="Haz_8EwUBin59iLyk_8Q-145" target="Haz_8EwUBin59iLyk_8Q-199" edge="1">
            <mxGeometry relative="1" as="geometry" />
          </mxCell>
        </UserObject>
        <UserObject label="00000000" tags="simple pipeline forwarding" component="reg-value" source="wb" id="Haz_8EwUBin59iLyk_8Q-157">
          <mxCell style="rounded=1;fontFamily=sans-serif;fontSize=6;arcSize=1;align=center;direction=south;spacing=0;horizontal=0;" parent="Haz_8EwUBin59iLyk_8Q-26" vertex="1">
            <mxGeometry x="709" y="298.00000000000006" width="7" height="64" as="geometry" />
          </mxCell>
        </UserObject>
        <UserObject label="" tags="pipeline forwarding" id="Haz_8EwUBin59iLyk_8Q-170">
          <mxCell style="group" parent="Haz_8EwUBin59iLyk_8Q-26" vertex="1" connectable="0">
            <mxGeometry x="662" y="70" width="6" height="398.5" as="geometry" />
          </mxCell>
        </UserObject>
        <UserObject label="" tags="simple" id="Haz_8EwUBin59iLyk_8Q-171">
          <mxCell style="rounded=0;whiteSpace=wrap;html=1;fontFamily=sans-serif;fontSize=6;fontColor=#0000CC;align=left;" parent="Haz_8EwUBin59iLyk_8Q-170" vertex="1" visible="0">
            <mxGeometry width="6" height="398.5" as="geometry" />
          </mxCell>
        </UserObject>
        <UserObject label="" tags="simple" id="Haz_8EwUBin59iLyk_8Q-172">
          <mxCell style="triangle;whiteSpace=wrap;html=1;rounded=0;fontFamily=sans-serif;fontSize=6;fontColor=#0000CC;align=left;direction=south;" parent="Haz_8EwUBin59iLyk_8Q-170" vertex="1" visible="0">
            <mxGeometry x="0.5" width="5" height="4.5" as="geometry" />
          </mxCell>
        </UserObject>
        <UserObject label="" tags="pipeline simple forwarding" id="Haz_8EwUBin59iLyk_8Q-173">
          <mxCell style="group" parent="Haz_8EwUBin59iLyk_8Q-170" vertex="1" connectable="0">
            <mxGeometry width="6" height="398.5" as="geometry" />
          </mxCell>
        </UserObject>
        <UserObject label="" tags="pipeline forwarding" id="Haz_8EwUBin59iLyk_8Q-174">
          <mxCell style="rounded=0;whiteSpace=wrap;html=1;fontFamily=sans-serif;fontSize=6;fontColor=#0000CC;align=left;" parent="Haz_8EwUBin59iLyk_8Q-173" vertex="1">
            <mxGeometry width="6" height="398.5" as="geometry" />
          </mxCell>
        </UserObject>
        <UserObject label="" tags="pipeline forwarding" id="Haz_8EwUBin59iLyk_8Q-175">
          <mxCell style="triangle;whiteSpace=wrap;html=1;rounded=0;fontFamily=sans-serif;fontSize=6;fontColor=#0000CC;align=left;direction=south;" parent="Haz_8EwUBin59iLyk_8Q-173" vertex="1">
            <mxGeometry x="0.5" width="5" height="4.5" as="geometry" />
          </mxCell>
        </UserObject>
        <UserObject label="" tags="simple pipeline forwarding" id="Haz_8EwUBin59iLyk_8Q-176">
          <mxCell style="group" parent="Haz_8EwUBin59iLyk_8Q-26" vertex="1" connectable="0">
            <mxGeometry x="57" y="250" width="6" height="19" as="geometry" />
          </mxCell>
        </UserObject>
        <UserObject label="" tags="simple pipeline forwarding" id="Haz_8EwUBin59iLyk_8Q-177">
          <mxCell style="rounded=0;whiteSpace=wrap;html=1;fontFamily=sans-serif;fontSize=6;fontColor=#0000CC;align=left;" parent="Haz_8EwUBin59iLyk_8Q-176" vertex="1">
            <mxGeometry width="6" height="19" as="geometry" />
          </mxCell>
        </UserObject>
        <UserObject label="" tags="simple pipeline forwarding" id="Haz_8EwUBin59iLyk_8Q-178">
          <mxCell style="triangle;whiteSpace=wrap;html=1;rounded=0;fontFamily=sans-serif;fontSize=6;fontColor=#0000CC;align=left;direction=south;" parent="Haz_8EwUBin59iLyk_8Q-176" vertex="1">
            <mxGeometry x="0.5" y="0.25" width="5" height="4.5" as="geometry" />
          </mxCell>
        </UserObject>
        <UserObject label="" tags="simple pipeline forwarding" id="Haz_8EwUBin59iLyk_8Q-179">
          <mxCell style="group" parent="Haz_8EwUBin59iLyk_8Q-26" vertex="1" connectable="0">
            <mxGeometry x="486" y="234" width="34" height="86" as="geometry" />
          </mxCell>
        </UserObject>
        <UserObject label="" tags="simple pipeline forwarding" id="Haz_8EwUBin59iLyk_8Q-180">
          <mxCell style="shape=stencil(rZTdcoIwEIWfJrcOZLXVS4fqVW/7ABHWkhoThlC1b++SQFvkpxacYWDOOdkvCdkJg8imIkPGAy2OyOCFcb5+faM3WanXq8DLs5dQSWEzjAvv7eUFE2/bIjcHPMukqMqlTjGXRZnChgVrGlM+EMVGayJIo20j+ZUTTEhNtcHFw6q5vyo1414zvh2NWP4fEd4gFiNWURd9Q8LnR1CWMH07824EROT0HRpEOxEf3nPzqZPOiTNRNkQrqGMlNX4YqUm5j1vKDk+ohvZTVx/NCXtP+B5AOf0PAJoEmI54GoFoElaTCYvBNu0mhE3EfATi5l/eRYiVsfjnqL1Uyl83Aw1Pfqv1nNvTr4Q1OXYGVNTKnOvvUGdcAQ==);rounded=1;fontSize=7;align=right;spacingRight=0;spacingBottom=0;fontStyle=1;spacing=0;" parent="Haz_8EwUBin59iLyk_8Q-179" vertex="1">
            <mxGeometry width="34" height="86" as="geometry" />
          </mxCell>
        </UserObject>
        <UserObject label="ALU" tags="simple pipeline forwarding" id="Haz_8EwUBin59iLyk_8Q-181">
          <mxCell style="text;strokeColor=none;fillColor=none;align=center;verticalAlign=middle;rounded=0;fontSize=8;fontFamily=sans-serif;spacing=0;fontStyle=1;labelPosition=center;verticalLabelPosition=middle;labelBackgroundColor=none;spacingBottom=1;" parent="Haz_8EwUBin59iLyk_8Q-179" vertex="1">
            <mxGeometry x="13" y="39" width="18" height="8" as="geometry" />
          </mxCell>
        </UserObject>
        <UserObject label="zero" tags="simple pipeline forwarding" id="Haz_8EwUBin59iLyk_8Q-182">
          <mxCell style="text;strokeColor=none;fillColor=none;align=right;verticalAlign=middle;rounded=0;fontSize=6;fontFamily=sans-serif;spacing=0;fontStyle=1;labelPosition=center;verticalLabelPosition=middle;labelBackgroundColor=none;spacingBottom=1;fontColor=#0000CC;" parent="Haz_8EwUBin59iLyk_8Q-179" vertex="1">
            <mxGeometry x="13" y="31" width="16" height="5.56" as="geometry" />
          </mxCell>
        </UserObject>
        <UserObject label="Peripherals" tags="simple pipeline forwarding" link="#peripherals" id="Haz_8EwUBin59iLyk_8Q-183">
          <mxCell style="rounded=1;gradientColor=none;arcSize=17;fontSize=6;fontFamily=sans-serif;fontStyle=1;verticalAlign=middle;align=center;labelPosition=center;verticalLabelPosition=middle;labelBackgroundColor=none;" parent="Haz_8EwUBin59iLyk_8Q-26" vertex="1">
            <mxGeometry x="591" y="341" width="45" height="16" as="geometry" />
          </mxCell>
        </UserObject>
        <UserObject label="Cycles:" tags="simple pipeline forwarding" id="Haz_8EwUBin59iLyk_8Q-187">
          <mxCell style="text;strokeColor=none;fillColor=none;align=center;verticalAlign=middle;rounded=0;fontSize=6;fontFamily=sans-serif;spacing=0;fontStyle=1;labelPosition=center;verticalLabelPosition=middle;labelBackgroundColor=none;spacingBottom=1;" parent="Haz_8EwUBin59iLyk_8Q-26" vertex="1">
            <mxGeometry x="429" y="527" width="41" height="8" as="geometry" />
          </mxCell>
        </UserObject>
        <UserObject label="Stalls:" tags="simple pipeline forwarding" id="Haz_8EwUBin59iLyk_8Q-188">
          <mxCell style="text;strokeColor=none;fillColor=none;align=center;verticalAlign=middle;rounded=0;fontSize=6;fontFamily=sans-serif;spacing=0;fontStyle=1;labelPosition=center;verticalLabelPosition=middle;labelBackgroundColor=none;spacingBottom=1;" parent="Haz_8EwUBin59iLyk_8Q-26" vertex="1">
            <mxGeometry x="561" y="527" width="41" height="8" as="geometry" />
          </mxCell>
        </UserObject>
        <UserObject label="MemToReg" tags="simple pipeline forwarding" id="Haz_8EwUBin59iLyk_8Q-191">
          <mxCell style="text;strokeColor=none;fillColor=none;align=left;verticalAlign=middle;rounded=0;fontFamily=sans-serif;fontSize=6;fontStyle=1;spacing=0;labelPosition=center;verticalLabelPosition=middle;labelBackgroundColor=none;" parent="Haz_8EwUBin59iLyk_8Q-26" vertex="1">
            <mxGeometry x="286.5" y="106.5" width="40" height="8" as="geometry" />
          </mxCell>
        </UserObject>
        <UserObject label="MemWrite" tags="simple pipeline forwarding" id="Haz_8EwUBin59iLyk_8Q-192">
          <mxCell style="text;strokeColor=none;fillColor=none;align=left;verticalAlign=middle;rounded=0;fontFamily=sans-serif;fontSize=6;fontStyle=1;spacing=0;labelPosition=center;verticalLabelPosition=middle;labelBackgroundColor=none;" parent="Haz_8EwUBin59iLyk_8Q-26" vertex="1">
            <mxGeometry x="286.5" y="112.5" width="40" height="8" as="geometry" />
          </mxCell>
        </UserObject>
        <UserObject label="MemRead" tags="simple pipeline forwarding" id="Haz_8EwUBin59iLyk_8Q-193">
          <mxCell style="text;strokeColor=none;fillColor=none;align=left;verticalAlign=middle;rounded=0;fontFamily=sans-serif;fontSize=6;fontStyle=1;spacing=0;labelPosition=center;verticalLabelPosition=middle;labelBackgroundColor=none;" parent="Haz_8EwUBin59iLyk_8Q-26" vertex="1">
            <mxGeometry x="286.5" y="119.5" width="40" height="8" as="geometry" />
          </mxCell>
        </UserObject>
        <UserObject label="AluCtl" tags="simple pipeline forwarding" id="Haz_8EwUBin59iLyk_8Q-194">
          <mxCell style="text;strokeColor=none;fillColor=none;align=left;verticalAlign=middle;rounded=0;fontFamily=sans-serif;fontSize=6;fontStyle=1;spacing=0;labelPosition=center;verticalLabelPosition=middle;labelBackgroundColor=none;" parent="Haz_8EwUBin59iLyk_8Q-26" vertex="1">
            <mxGeometry x="287.5" y="132.5" width="40" height="8" as="geometry" />
          </mxCell>
        </UserObject>
        <UserObject label="AluSrc" tags="simple pipeline forwarding" id="Haz_8EwUBin59iLyk_8Q-195">
          <mxCell style="text;strokeColor=none;fillColor=none;align=left;verticalAlign=middle;rounded=0;fontFamily=sans-serif;fontSize=6;fontStyle=1;spacing=0;labelPosition=center;verticalLabelPosition=middle;labelBackgroundColor=none;" parent="Haz_8EwUBin59iLyk_8Q-26" vertex="1">
            <mxGeometry x="286.5" y="140.5" width="40" height="8" as="geometry" />
          </mxCell>
        </UserObject>
        <UserObject label="" tags="pipeline forwarding" id="Haz_8EwUBin59iLyk_8Q-201">
          <mxCell style="group" parent="Haz_8EwUBin59iLyk_8Q-26" vertex="1" connectable="0">
            <mxGeometry x="143" y="60" width="42" height="409" as="geometry" />
          </mxCell>
        </UserObject>
        <UserObject label="IF/ID" tags="simple pipeline forwarding" id="Haz_8EwUBin59iLyk_8Q-202">
          <mxCell style="text;strokeColor=none;fillColor=none;align=center;verticalAlign=middle;rounded=0;fontSize=6;fontFamily=sans-serif;spacing=0;fontStyle=1;labelPosition=center;verticalLabelPosition=middle;labelBackgroundColor=none;spacingBottom=1;" parent="Haz_8EwUBin59iLyk_8Q-201" vertex="1">
            <mxGeometry width="42" height="8" as="geometry" />
          </mxCell>
        </UserObject>
        <UserObject label="" tags="pipeline forwarding" id="Haz_8EwUBin59iLyk_8Q-203">
          <mxCell style="group" parent="Haz_8EwUBin59iLyk_8Q-201" vertex="1" connectable="0">
            <mxGeometry x="18" y="10.5" width="6" height="398.5" as="geometry" />
          </mxCell>
        </UserObject>
        <UserObject label="" tags="simple pipeline forwarding" id="Haz_8EwUBin59iLyk_8Q-204">
          <mxCell style="rounded=0;whiteSpace=wrap;html=1;fontFamily=sans-serif;fontSize=6;fontColor=#0000CC;align=left;" parent="Haz_8EwUBin59iLyk_8Q-203" vertex="1">
            <mxGeometry width="6" height="398.5" as="geometry" />
          </mxCell>
        </UserObject>
        <UserObject label="" tags="simple pipeline forwarding" id="Haz_8EwUBin59iLyk_8Q-205">
          <mxCell style="triangle;whiteSpace=wrap;html=1;rounded=0;fontFamily=sans-serif;fontSize=6;fontColor=#0000CC;align=left;direction=south;" parent="Haz_8EwUBin59iLyk_8Q-203" vertex="1">
            <mxGeometry x="0.5" width="5" height="4.5" as="geometry" />
          </mxCell>
        </UserObject>
        <UserObject label="" tags="simple forwarding pipeline" link="#data_memory" id="Haz_8EwUBin59iLyk_8Q-210">
          <mxCell style="group;fontSize=12;" parent="Haz_8EwUBin59iLyk_8Q-26" vertex="1" connectable="0">
            <mxGeometry x="581" y="258" width="60" height="80" as="geometry" />
          </mxCell>
        </UserObject>
        <UserObject label="" tags="simple pipeline forwarding" link="#data_memory" id="Haz_8EwUBin59iLyk_8Q-211">
          <mxCell style="rounded=1;gradientColor=none;arcSize=2;fontSize=6;fontStyle=1;fontFamily=sans-serif;verticalAlign=middle;align=center;labelPosition=center;verticalLabelPosition=middle;labelBackgroundColor=none;" parent="Haz_8EwUBin59iLyk_8Q-210" vertex="1">
            <mxGeometry width="60" height="80" as="geometry" />
          </mxCell>
        </UserObject>
        <UserObject label="Data&#xa;Memory" tags="simple pipeline forwarding" link="#data_memory" id="Haz_8EwUBin59iLyk_8Q-212">
          <mxCell style="text;strokeColor=none;fillColor=none;align=center;verticalAlign=middle;rounded=0;fontSize=6;fontFamily=sans-serif;spacing=0;fontStyle=1;labelPosition=center;verticalLabelPosition=middle;labelBackgroundColor=none;spacingBottom=1;" parent="Haz_8EwUBin59iLyk_8Q-210" vertex="1">
            <mxGeometry x="6" y="53" width="48" height="17" as="geometry" />
          </mxCell>
        </UserObject>
        <UserObject label="" link="#cache_data" component="cache" tags="simple forwarding hazardunit pipeline" id="uWEq7-W_z53UrtFael4O-37">
          <mxCell style="shape=stencil(rVTRbsMgDPwaHidRWPteZZv20o9gxDSolFTA1GRfP4LJOliXqVqlSInPOd8ZWxDe+E6cgDBqxREIfyKMSSG7iLAIdoisKYZnDDc5FP4EMiCm9AAtwj64/gBn3YZM17YDp8OU5c+EbuM/08ObNyEPe9e/27ZIzOmUcZMEowOWyspjEVW2KtPCSa8/cm8MMcJeKisR+cUNb1TvYMGm0sZgz1cqX2rYkGzE8/lys7nupuCE0SRSeifW6m+WEkdtxhjnj8TzwvoHHyehlgsEGAKOEXnNZR/yFHg5htV80kbvbd4hsAHcbTqvcUX4thBaFzpz+E3HgAq3qey098sy/PEOMrQQqPb2Lo1UCv/oIW3/jyVPKN4OCfgE);" parent="Haz_8EwUBin59iLyk_8Q-210" vertex="1">
            <mxGeometry width="60" height="50" as="geometry" />
          </mxCell>
        </UserObject>
        <mxCell id="Haz_8EwUBin59iLyk_8Q-213" value="" style="group" parent="Haz_8EwUBin59iLyk_8Q-26" vertex="1" connectable="0">
          <mxGeometry x="88" y="330" width="29" height="39" as="geometry" />
        </mxCell>
        <UserObject label="4" tags="simple pipeline forwarding" id="Haz_8EwUBin59iLyk_8Q-214">
          <mxCell style="text;strokeColor=none;fillColor=none;align=center;verticalAlign=middle;rounded=0;fontSize=6;fontFamily=sans-serif;spacing=0;fontStyle=1;labelPosition=center;verticalLabelPosition=middle;labelBackgroundColor=none;spacingBottom=1;" parent="Haz_8EwUBin59iLyk_8Q-213" vertex="1">
            <mxGeometry x="1" y="28" width="8" height="8" as="geometry" />
          </mxCell>
        </UserObject>
        <mxCell id="Haz_8EwUBin59iLyk_8Q-215" value="" style="group" parent="Haz_8EwUBin59iLyk_8Q-213" vertex="1" connectable="0">
          <mxGeometry x="9" width="20" height="39" as="geometry" />
        </mxCell>
        <UserObject label="" tags="simple pipeline forwarding" id="Haz_8EwUBin59iLyk_8Q-216">
          <mxCell style="edgeStyle=orthogonalEdgeStyle;rounded=0;jumpStyle=arc;jumpSize=4;orthogonalLoop=1;jettySize=auto;exitX=0;exitY=0.8;exitDx=0;exitDy=0;exitPerimeter=0;entryX=1;entryY=0.5;entryDx=0;entryDy=0;endArrow=none;endFill=0;fontSize=6;fontFamily=sans-serif;verticalAlign=middle;align=center;labelPosition=center;verticalLabelPosition=middle;labelBackgroundColor=none;html=1;" parent="Haz_8EwUBin59iLyk_8Q-215" target="Haz_8EwUBin59iLyk_8Q-214" edge="1">
            <mxGeometry x="88" y="330" as="geometry">
              <mxPoint y="32" as="targetPoint" />
              <mxPoint x="4.944444444444457" y="32" as="sourcePoint" />
            </mxGeometry>
          </mxCell>
        </UserObject>
        <UserObject label="" tags="simple pipeline forwarding" id="Haz_8EwUBin59iLyk_8Q-217">
          <mxCell style="group;fontFamily=sans-serif;fontSize=6;verticalAlign=middle;align=center;labelPosition=center;verticalLabelPosition=middle;labelBackgroundColor=none;html=1;" parent="Haz_8EwUBin59iLyk_8Q-215" vertex="1" connectable="0">
            <mxGeometry x="1" width="20" height="39" as="geometry" />
          </mxCell>
        </UserObject>
        <mxCell id="Haz_8EwUBin59iLyk_8Q-218" value="" style="group" parent="Haz_8EwUBin59iLyk_8Q-217" vertex="1" connectable="0">
          <mxGeometry width="20" height="39" as="geometry" />
        </mxCell>
        <UserObject label="" tags="simple pipeline forwarding" id="Haz_8EwUBin59iLyk_8Q-219">
          <mxCell style="shape=stencil(rZTdcoIwEIWfJrcOJOropUPbq972ASKssjUmDKH+vL1LAlrkpxadYWDOOdkvIdkJE5FNZQaMB1rugYk3xvnq84veZKVeLwMvj16KSkqbQVx4b4MnSLxti9zs4IhJUZWjTiHHokzFOwtWNKZ8RBQbrYmARttG8isnmERNtcHJw6q5z5WacK8Z/xiNWPwfEd4hZiNWURddIeH0FZTFvJsiInL6dlxEaxnvtrn50Unn3JksT7MV1LFCDd8GNSn3cWtZwwHU0C/V1XtzgN7jeQRQTn8DiCZBPI+Yj0A0CcunCbPBHusmhE3EdATibi8fIsTKWPhz1AaV8nfFQM+T32o95/b0K2FNDp0BFbUy5/oL0BkX);rounded=1;fontSize=6;align=center;spacingRight=0;spacingBottom=0;fontStyle=1;spacing=0;fontFamily=sans-serif;verticalAlign=middle;labelPosition=center;verticalLabelPosition=middle;labelBackgroundColor=none;html=1;" parent="Haz_8EwUBin59iLyk_8Q-218" vertex="1">
            <mxGeometry width="20" height="39" as="geometry" />
          </mxCell>
        </UserObject>
        <UserObject label="" tags="simple pipeline forwarding" id="Haz_8EwUBin59iLyk_8Q-220">
          <mxCell style="shape=stencil(xVPtDoIgFH0a/iPMB2hW78ESk0JggGlvHx9qqdM1q7Wx3d1z7j0c2L0AZ6YkigIEBakowHuAkOK1ccFhZQQSCGPeTHJiFD3ZCBaspXmEjdXyShuW206AiZJqZj2LDwDuXI0/OCukpmcta5GPiJ5WxCvMiJ7mTNCLZMJlIYS7olrwAdBxpfvVpXva022SvtNeyZv/tjb2pN2P3MfpuoT3vyjxucIWE19/xhaJYb7+a2MiMbj6uY2CcR6nc7EUZw6frUdAZzsV0LjmAXgA);rounded=1;fontSize=6;align=center;spacingRight=0;spacingBottom=0;fontStyle=1;spacing=0;fontFamily=sans-serif;verticalAlign=middle;labelPosition=center;verticalLabelPosition=middle;labelBackgroundColor=none;html=1;" parent="Haz_8EwUBin59iLyk_8Q-218" vertex="1">
            <mxGeometry x="10" y="10.75" width="4" height="17.5" as="geometry" />
          </mxCell>
        </UserObject>
        <mxCell id="Haz_8EwUBin59iLyk_8Q-221" value="" style="group;html=0;" parent="Haz_8EwUBin59iLyk_8Q-26" vertex="1" connectable="0">
          <mxGeometry x="337" y="424" width="20" height="39" as="geometry" />
        </mxCell>
        <UserObject label="" tags="simple pipeline forwarding" id="Haz_8EwUBin59iLyk_8Q-222">
          <mxCell style="shape=stencil(rZTdcoIwEIWfJrcOJOropUPbq972ASKssjUmDKH+vL1LAlrkpxadYWDOOdkvIdkJE5FNZQaMB1rugYk3xvnq84veZKVeLwMvj16KSkqbQVx4b4MnSLxti9zs4IhJUZWjTiHHokzFOwtWNKZ8RBQbrYmARttG8isnmERNtcHJw6q5z5WacK8Z/xiNWPwfEd4hZiNWURddIeH0FZTFvJsiInL6dlxEaxnvtrn50Unn3JksT7MV1LFCDd8GNSn3cWtZwwHU0C/V1XtzgN7jeQRQTn8DiCZBPI+Yj0A0CcunCbPBHusmhE3EdATibi8fIsTKWPhz1AaV8nfFQM+T32o95/b0K2FNDp0BFbUy5/oL0BkX);rounded=1;fontSize=6;align=center;spacingRight=0;spacingBottom=0;fontStyle=1;spacing=0;fontFamily=sans-serif;verticalAlign=middle;labelPosition=center;verticalLabelPosition=middle;labelBackgroundColor=none;html=1;" parent="Haz_8EwUBin59iLyk_8Q-221" vertex="1">
            <mxGeometry x="1" width="20" height="39" as="geometry" />
          </mxCell>
        </UserObject>
        <UserObject label="" tags="simple pipeline forwarding" id="Haz_8EwUBin59iLyk_8Q-223">
          <mxCell style="shape=stencil(xVPtDoIgFH0a/iPMB2hW78ESk0JggGlvHx9qqdM1q7Wx3d1z7j0c2L0AZ6YkigIEBakowHuAkOK1ccFhZQQSCGPeTHJiFD3ZCBaspXmEjdXyShuW206AiZJqZj2LDwDuXI0/OCukpmcta5GPiJ5WxCvMiJ7mTNCLZMJlIYS7olrwAdBxpfvVpXva022SvtNeyZv/tjb2pN2P3MfpuoT3vyjxucIWE19/xhaJYb7+a2MiMbj6uY2CcR6nc7EUZw6frUdAZzsV0LjmAXgA);rounded=1;fontSize=6;align=center;spacingRight=0;spacingBottom=0;fontStyle=1;spacing=0;fontFamily=sans-serif;verticalAlign=middle;labelPosition=center;verticalLabelPosition=middle;labelBackgroundColor=none;html=1;" parent="Haz_8EwUBin59iLyk_8Q-221" vertex="1">
            <mxGeometry x="11" y="10.75" width="4" height="17.5" as="geometry" />
          </mxCell>
        </UserObject>
        <UserObject label="RegWrite" tags="pipeline forwarding" id="4UeL6ZtvB5kMY3OpyeXH-3">
          <mxCell style="text;strokeColor=none;fillColor=none;align=left;verticalAlign=middle;rounded=0;fontFamily=sans-serif;fontSize=6;fontStyle=1;spacing=0;labelPosition=center;verticalLabelPosition=middle;labelBackgroundColor=none;" parent="Haz_8EwUBin59iLyk_8Q-26" vertex="1">
            <mxGeometry x="286.5" y="99.5" width="40" height="8" as="geometry" />
          </mxCell>
        </UserObject>
        <UserObject label="" tags="simple" id="4UeL6ZtvB5kMY3OpyeXH-2">
          <mxCell style="edgeStyle=orthogonalEdgeStyle;rounded=0;orthogonalLoop=1;jettySize=auto;html=1;shadow=0;fontFamily=sans-serif;fontSize=6;strokeColor=#3333FF;strokeWidth=1;labelBackgroundColor=none;endFill=0;endArrow=none;sketch=0;jumpStyle=arc;jumpSize=4;" parent="Haz_8EwUBin59iLyk_8Q-26" target="Haz_8EwUBin59iLyk_8Q-40" edge="1" visible="0">
            <mxGeometry relative="1" as="geometry">
              <mxPoint x="250" y="134" as="sourcePoint" />
              <Array as="points">
                <mxPoint x="280" y="134" />
              </Array>
            </mxGeometry>
          </mxCell>
        </UserObject>
        <UserObject label="" tags="pipeline forwarding simple" id="Haz_8EwUBin59iLyk_8Q-50">
          <mxCell style="edgeStyle=orthogonalEdgeStyle;rounded=0;sketch=0;jumpStyle=arc;jumpSize=4;orthogonalLoop=1;jettySize=auto;exitX=0.5;exitY=0.065;exitDx=0;exitDy=0;shadow=0;endArrow=none;endFill=0;strokeColor=#3333FF;strokeWidth=1;fontSize=6;fontFamily=sans-serif;verticalAlign=middle;align=center;labelPosition=center;verticalLabelPosition=middle;labelBackgroundColor=none;html=1;exitPerimeter=0;entryX=1.005;entryY=0.802;entryDx=0;entryDy=0;entryPerimeter=0;" parent="Haz_8EwUBin59iLyk_8Q-26" source="Haz_8EwUBin59iLyk_8Q-113" target="Haz_8EwUBin59iLyk_8Q-85" edge="1">
            <mxGeometry relative="1" as="geometry">
              <mxPoint x="251" y="147" as="targetPoint" />
              <Array as="points">
                <mxPoint x="476" y="147" />
              </Array>
              <mxPoint x="476.30500000000006" y="295.1659983142981" as="sourcePoint" />
            </mxGeometry>
          </mxCell>
        </UserObject>
        <UserObject label="" tags="simple pipeline forwarding" id="Haz_8EwUBin59iLyk_8Q-83">
          <mxCell style="edgeStyle=orthogonalEdgeStyle;rounded=0;sketch=0;jumpStyle=arc;jumpSize=4;orthogonalLoop=1;jettySize=auto;exitX=0;exitY=0.25;exitDx=0;exitDy=0;exitPerimeter=0;entryX=0.997;entryY=0.879;entryDx=0;entryDy=0;entryPerimeter=0;shadow=0;endArrow=none;endFill=0;strokeColor=#3333FF;strokeWidth=1;fontFamily=sans-serif;fontSize=6;verticalAlign=middle;align=center;labelPosition=center;verticalLabelPosition=middle;labelBackgroundColor=none;html=1;" parent="Haz_8EwUBin59iLyk_8Q-26" source="Haz_8EwUBin59iLyk_8Q-84" target="Haz_8EwUBin59iLyk_8Q-85" edge="1">
            <mxGeometry relative="1" as="geometry">
              <Array as="points">
                <mxPoint x="522" y="186" />
                <mxPoint x="522" y="153" />
              </Array>
            </mxGeometry>
          </mxCell>
        </UserObject>
        <UserObject label="Branch" tags="simple pipeline forwarding" id="Haz_8EwUBin59iLyk_8Q-196">
          <mxCell style="text;strokeColor=none;fillColor=none;align=left;verticalAlign=middle;rounded=0;fontFamily=sans-serif;fontSize=6;fontStyle=1;spacing=0;labelPosition=center;verticalLabelPosition=middle;labelBackgroundColor=none;" parent="Haz_8EwUBin59iLyk_8Q-26" vertex="1">
            <mxGeometry x="286.5" y="146.5" width="40" height="8" as="geometry" />
          </mxCell>
        </UserObject>
        <UserObject label="" tags="simple pipeline forwarding" link="#program_memory" id="Haz_8EwUBin59iLyk_8Q-208">
          <mxCell style="rounded=1;gradientColor=none;arcSize=2;fontSize=6;fontStyle=1;fontFamily=sans-serif;verticalAlign=middle;align=center;labelPosition=center;verticalLabelPosition=middle;labelBackgroundColor=none;html=1;" parent="Haz_8EwUBin59iLyk_8Q-26" vertex="1">
            <mxGeometry x="94" y="238" width="60" height="80" as="geometry" />
          </mxCell>
        </UserObject>
        <UserObject label="Program&#xa;Memory" tags="simple pipeline forwarding" link="#program_memory" id="Haz_8EwUBin59iLyk_8Q-209">
          <mxCell style="text;strokeColor=none;fillColor=none;align=center;verticalAlign=middle;rounded=0;fontSize=6;fontFamily=sans-serif;spacing=0;fontStyle=1;labelPosition=center;verticalLabelPosition=middle;labelBackgroundColor=none;spacingBottom=1;" parent="Haz_8EwUBin59iLyk_8Q-26" vertex="1">
            <mxGeometry x="100" y="294" width="48" height="18" as="geometry" />
          </mxCell>
        </UserObject>
        <UserObject label="RegWrite" tags="simple" id="5soJhyaSc5fLxI4RMxeW-4">
          <mxCell style="text;strokeColor=none;fillColor=none;align=left;verticalAlign=middle;rounded=0;fontFamily=sans-serif;fontSize=6;fontStyle=1;spacing=0;labelPosition=center;verticalLabelPosition=middle;labelBackgroundColor=none;" parent="Haz_8EwUBin59iLyk_8Q-26" vertex="1" visible="0">
            <mxGeometry x="283" y="190" width="40" height="8" as="geometry" />
          </mxCell>
        </UserObject>
        <mxCell id="Zvq364hImIOJoiC3617Z-14" value="" style="edgeStyle=orthogonalEdgeStyle;rounded=0;sketch=0;jumpStyle=arc;jumpSize=4;orthogonalLoop=1;jettySize=auto;shadow=0;endArrow=none;endFill=0;strokeColor=#000000;strokeWidth=3;fontSize=6;fontFamily=sans-serif;verticalAlign=middle;align=center;labelPosition=center;verticalLabelPosition=middle;labelBackgroundColor=none;html=1;exitX=1;exitY=0.5;exitDx=0;exitDy=0;exitPerimeter=0;entryX=0;entryY=0.65;entryDx=0;entryDy=0;jumpSize=4;entryPerimeter=0;" parent="Haz_8EwUBin59iLyk_8Q-26" source="Haz_8EwUBin59iLyk_8Q-222" target="dQApTKY7MUPNvbngPjsP-5" edge="1">
          <mxGeometry relative="1" as="geometry">
            <Array as="points">
              <mxPoint x="531" y="444" />
              <mxPoint x="531" y="480" />
              <mxPoint x="10" y="480" />
              <mxPoint x="10" y="407" />
              <mxPoint x="21" y="407" />
            </Array>
            <mxPoint x="353.5" y="443.5" as="sourcePoint" />
            <mxPoint x="21.819999999999936" y="409.885" as="targetPoint" />
          </mxGeometry>
        </mxCell>
        <UserObject label="" component="program-cache" tags="simple forwarding pipeline" link="#cache_program" id="uWEq7-W_z53UrtFael4O-36">
          <mxCell style="shape=stencil(rVTRbsMgDPwaHidRWPteZZv20o9gxDSolFTA1GRfP4LJOliXqVqlSInPOd8ZWxDe+E6cgDBqxREIfyKMSSG7iLAIdoisKYZnDDc5FP4EMiCm9AAtwj64/gBn3YZM17YDp8OU5c+EbuM/08ObNyEPe9e/27ZIzOmUcZMEowOWyspjEVW2KtPCSa8/cm8MMcJeKisR+cUNb1TvYMGm0sZgz1cqX2rYkGzE8/lys7nupuCE0SRSeifW6m+WEkdtxhjnj8TzwvoHHyehlgsEGAKOEXnNZR/yFHg5htV80kbvbd4hsAHcbTqvcUX4thBaFzpz+E3HgAq3qey098sy/PEOMrQQqPb2Lo1UCv/oIW3/jyVPKN4OCfgE);collapsible=0;dropTarget=0;autosize=0;container=0;metaEdit=0;" parent="Haz_8EwUBin59iLyk_8Q-26" vertex="1">
            <mxGeometry x="94" y="237" width="60" height="50" as="geometry" />
          </mxCell>
        </UserObject>
        <UserObject label="00000000" tags="simple pipeline forwarding" component="reg-value" source="decode-imm" id="uWEq7-W_z53UrtFael4O-38">
          <mxCell style="rounded=1;fontFamily=sans-serif;fontSize=6;arcSize=1;align=center;spacing=0;" parent="Haz_8EwUBin59iLyk_8Q-26" vertex="1">
            <mxGeometry x="300.5" y="412" width="56" height="8" as="geometry" />
          </mxCell>
        </UserObject>
        <mxCell id="uWEq7-W_z53UrtFael4O-39" value="" style="edgeStyle=orthogonalEdgeStyle;rounded=0;sketch=0;jumpStyle=arc;jumpSize=4;orthogonalLoop=1;jettySize=auto;shadow=0;endArrow=none;endFill=0;strokeColor=#000000;strokeWidth=3;fontSize=6;fontFamily=sans-serif;verticalAlign=middle;align=center;labelPosition=center;verticalLabelPosition=middle;labelBackgroundColor=none;html=1;exitX=1;exitY=0.5;exitDx=0;exitDy=0;entryX=0;entryY=0.5;entryDx=0;entryDy=0;" parent="Haz_8EwUBin59iLyk_8Q-26" source="Haz_8EwUBin59iLyk_8Q-59" edge="1">
          <mxGeometry relative="1" as="geometry">
            <Array as="points">
              <mxPoint x="295" y="416" />
              <mxPoint x="295" y="416" />
            </Array>
            <mxPoint x="291" y="416" as="sourcePoint" />
            <mxPoint x="299.5" y="416" as="targetPoint" />
          </mxGeometry>
        </mxCell>
        <mxCell id="HRoSpS79B9qHWH9jaoA8-29" style="edgeStyle=orthogonalEdgeStyle;rounded=0;jumpStyle=arc;jumpSize=4;orthogonalLoop=1;jettySize=auto;html=1;exitX=0;exitY=0.5;exitDx=0;exitDy=0;entryX=0.995;entryY=0.129;entryDx=0;entryDy=0;entryPerimeter=0;endArrow=none;endFill=0;startSize=6;" parent="Haz_8EwUBin59iLyk_8Q-26" source="Haz_8EwUBin59iLyk_8Q-118" target="Haz_8EwUBin59iLyk_8Q-40" edge="1">
          <mxGeometry relative="1" as="geometry" />
        </mxCell>
        <mxCell id="HRoSpS79B9qHWH9jaoA8-30" value="" style="edgeStyle=orthogonalEdgeStyle;rounded=0;jumpStyle=arc;jumpSize=4;orthogonalLoop=1;jettySize=auto;html=1;endArrow=none;endFill=0;shadow=0;fontFamily=sans-serif;fontSize=6;strokeWidth=3;labelBackgroundColor=none;sketch=0;entryX=0.995;entryY=0.126;entryDx=0;entryDy=0;entryPerimeter=0;" parent="Haz_8EwUBin59iLyk_8Q-26" source="Haz_8EwUBin59iLyk_8Q-118" target="Haz_8EwUBin59iLyk_8Q-40" edge="1">
          <mxGeometry relative="1" as="geometry" />
        </mxCell>
        <UserObject label="00000000" tags="simple pipeline forwarding" component="reg-value" source="decode-rs1" id="Haz_8EwUBin59iLyk_8Q-118">
          <mxCell style="rounded=1;fontFamily=sans-serif;fontSize=6;arcSize=1;align=center;spacing=0;" parent="Haz_8EwUBin59iLyk_8Q-26" vertex="1">
            <mxGeometry x="298" y="246" width="56" height="8" as="geometry" />
          </mxCell>
        </UserObject>
        <object label="" component="pc-value" source="fetch-pc" id="uWEq7-W_z53UrtFael4O-43">
          <mxCell style="group" parent="Haz_8EwUBin59iLyk_8Q-26" vertex="1" connectable="0">
            <mxGeometry x="2" y="280" width="72" height="25" as="geometry" />
          </mxCell>
        </object>
        <UserObject label="0x00000000" tags="simple pipeline forwarding" component="pc-value" source="fetch-pc" link="#" id="Haz_8EwUBin59iLyk_8Q-39">
          <mxCell style="rounded=1;gradientColor=none;perimeterSpacing=0;arcSize=1;fontSize=8;fontStyle=0;verticalAlign=middle;spacing=0;fontFamily=sans-serif;align=center;labelPosition=center;verticalLabelPosition=middle;labelBackgroundColor=none;spacingTop=6;movable=0;resizable=0;rotatable=0;deletable=0;editable=0;connectable=0;" parent="uWEq7-W_z53UrtFael4O-43" vertex="1">
            <mxGeometry width="72" height="25" as="geometry" />
          </mxCell>
        </UserObject>
        <UserObject label="PC" tags="simple pipeline forwarding" id="Haz_8EwUBin59iLyk_8Q-206">
          <mxCell style="text;strokeColor=none;fillColor=none;align=center;verticalAlign=middle;rounded=0;fontSize=6;fontFamily=sans-serif;spacing=0;fontStyle=1;labelPosition=center;verticalLabelPosition=middle;labelBackgroundColor=none;spacingBottom=0;" parent="uWEq7-W_z53UrtFael4O-43" vertex="1">
            <mxGeometry x="29" y="2" width="14" height="8" as="geometry" />
          </mxCell>
        </UserObject>
        <UserObject label="00000000" tags="simple pipeline forwarding" component="reg-value" source="fetched-value" id="uWEq7-W_z53UrtFael4O-42">
          <mxCell style="rounded=1;fontFamily=sans-serif;fontSize=6;arcSize=1;align=center;spacing=0;fontStyle=0" parent="Haz_8EwUBin59iLyk_8Q-26" vertex="1">
            <mxGeometry x="177" y="190" width="56" height="8" as="geometry" />
          </mxCell>
        </UserObject>
        <mxCell id="uWEq7-W_z53UrtFael4O-44" value="" style="edgeStyle=orthogonalEdgeStyle;rounded=0;sketch=0;jumpStyle=sharp;orthogonalLoop=1;jettySize=auto;entryX=0.25;entryY=1;entryDx=0;entryDy=0;shadow=0;endArrow=none;endFill=0;strokeColor=#000000;strokeWidth=3;fontSize=6;fontFamily=sans-serif;verticalAlign=middle;align=center;labelPosition=center;verticalLabelPosition=middle;labelBackgroundColor=none;html=1;" parent="Haz_8EwUBin59iLyk_8Q-26" source="Haz_8EwUBin59iLyk_8Q-74" target="uWEq7-W_z53UrtFael4O-42" edge="1">
          <mxGeometry relative="1" as="geometry">
            <mxPoint x="190" y="249" as="sourcePoint" />
            <mxPoint x="190" y="125" as="targetPoint" />
          </mxGeometry>
        </mxCell>
        <UserObject label="Rd" tags="simple pipeline forwarding" id="uWEq7-W_z53UrtFael4O-45">
          <mxCell style="text;strokeColor=none;fillColor=none;align=center;verticalAlign=middle;rounded=0;fontSize=6;fontFamily=sans-serif;spacing=0;fontStyle=1;labelPosition=center;verticalLabelPosition=middle;labelBackgroundColor=none;spacingBottom=1;" parent="Haz_8EwUBin59iLyk_8Q-26" vertex="1">
            <mxGeometry x="317" y="488" width="8" height="8" as="geometry" />
          </mxCell>
        </UserObject>
        <UserObject label="00000000" tags="forwarding pipeline" component="reg-value" source="exec-rs1" id="Haz_8EwUBin59iLyk_8Q-117">
          <mxCell style="rounded=1;fontFamily=sans-serif;fontSize=6;arcSize=1;align=center;direction=south;spacing=0;horizontal=0;" parent="Haz_8EwUBin59iLyk_8Q-26" vertex="1">
            <mxGeometry x="374.5" y="195.00000000000006" width="7" height="64" as="geometry" />
          </mxCell>
        </UserObject>
        <UserObject label="" tags="forwarding" component="mux3" source="exec-forward-a" id="Haz_8EwUBin59iLyk_8Q-116">
          <mxCell style="shape=stencil(3ZbBboMwDIafJsdNIWlLOU5su+04adcU0pEVEgS0ZW8/k8AKo2QIOHSTENS/8RfHMVYR9fOIpRwRLFnCEX1EhLy8voFN4Rc8IqN52JhnY5K1MVme8qAw2l6UPDRyXmTqwM8iLOpwISOeiaLy0ieEH+Cd6qJ+oKQEglAy73hafoAxISEWlwZWp/JZW/dNMog8T2YsgHAnMJwF0miCviF4swTFW12nUB+UoWOj/o4Fh/dMHWV4de2UVS3RczTuWEj+oYQESz90Ljt+4rFtS010ok588HzGAKrlLwDSLYkzH7GdgOhuw5tNWFt7bAyBjiIEscr5r2/tRRybaWFpWNB7faPVgWYDrMq4pQvb8wlm2mVObe1fTlWVgKVgVHcdYRaxRunc2wM2OZb45yi0dfId6dSfEPucGGhFtwNZ3cIh2irkzKjQuM397fqQGfXZuP+lg7Ta+9q1av7YaOEL);rounded=1;fontSize=7;align=right;spacingRight=0;spacingBottom=0;fontStyle=1;spacing=0;arcSize=19;" parent="Haz_8EwUBin59iLyk_8Q-26" vertex="1">
            <mxGeometry x="426" y="233" width="20" height="34" as="geometry" />
          </mxCell>
        </UserObject>
        <UserObject label="0" tags="pipeline forwarding" component="bool-value" source="alu-zero" id="uWEq7-W_z53UrtFael4O-55">
          <mxCell style="rounded=1;fontFamily=sans-serif;fontSize=6;arcSize=1;align=center;spacing=0;comic=0;allowArrows=0;connectable=0;recursiveResize=0;editable=0;expand=0;resizable=0;rotatable=0;" parent="Haz_8EwUBin59iLyk_8Q-26" vertex="1">
            <mxGeometry x="519" y="223" width="7" height="8" as="geometry" />
          </mxCell>
        </UserObject>
        <UserObject label="0" tags="pipeline forwarding" component="bool-value" source="exec-alu-src" id="uWEq7-W_z53UrtFael4O-56">
          <mxCell style="rounded=1;fontFamily=sans-serif;fontSize=6;arcSize=1;align=center;spacing=0;comic=0;allowArrows=0;connectable=0;recursiveResize=0;editable=0;expand=0;resizable=0;rotatable=0;" parent="Haz_8EwUBin59iLyk_8Q-26" vertex="1">
            <mxGeometry x="473" y="271" width="7" height="8" as="geometry" />
          </mxCell>
        </UserObject>
        <UserObject label="0" tags="pipeline forwarding" component="bool-value" source="exec-mem-to-reg" id="uWEq7-W_z53UrtFael4O-57">
          <mxCell style="rounded=1;fontFamily=sans-serif;fontSize=6;arcSize=1;align=center;spacing=0;comic=0;allowArrows=0;connectable=0;recursiveResize=0;editable=0;expand=0;resizable=0;rotatable=0;" parent="Haz_8EwUBin59iLyk_8Q-26" vertex="1">
            <mxGeometry x="486" y="109" width="7" height="8" as="geometry" />
          </mxCell>
        </UserObject>
        <UserObject label="0" tags="pipeline forwarding" component="bool-value" source="mem-to-reg" id="uWEq7-W_z53UrtFael4O-58">
          <mxCell style="rounded=1;fontFamily=sans-serif;fontSize=6;arcSize=1;align=center;spacing=0;comic=0;allowArrows=0;connectable=0;recursiveResize=0;editable=0;expand=0;resizable=0;rotatable=0;" parent="Haz_8EwUBin59iLyk_8Q-26" vertex="1">
            <mxGeometry x="693" y="237" width="7" height="8" as="geometry" />
          </mxCell>
        </UserObject>
        <UserObject label="0" tags="simple pipeline forwarding" component="bool-value" source="decode-alu-src" id="uWEq7-W_z53UrtFael4O-60">
          <mxCell style="rounded=1;fontFamily=sans-serif;fontSize=6;arcSize=1;align=center;spacing=0;comic=0;allowArrows=0;connectable=0;recursiveResize=0;editable=0;expand=0;resizable=0;rotatable=0;" parent="Haz_8EwUBin59iLyk_8Q-26" vertex="1">
            <mxGeometry x="343" y="143" width="7" height="8" as="geometry" />
          </mxCell>
        </UserObject>
        <UserObject label="0" tags="pipeline forwarding" component="bool-value" source="exec-mem-read" id="uWEq7-W_z53UrtFael4O-61">
          <mxCell style="rounded=1;fontFamily=sans-serif;fontSize=6;arcSize=1;align=center;spacing=0;comic=0;allowArrows=0;connectable=0;recursiveResize=0;editable=0;expand=0;resizable=0;rotatable=0;" parent="Haz_8EwUBin59iLyk_8Q-26" vertex="1">
            <mxGeometry x="462" y="124" width="7" height="8" as="geometry" />
          </mxCell>
        </UserObject>
        <UserObject label="0" tags="pipeline forwarding" component="bool-value" source="exec-mem-write" id="uWEq7-W_z53UrtFael4O-62">
          <mxCell style="rounded=1;fontFamily=sans-serif;fontSize=6;arcSize=1;align=center;spacing=0;comic=0;allowArrows=0;connectable=0;recursiveResize=0;editable=0;expand=0;resizable=0;rotatable=0;" parent="Haz_8EwUBin59iLyk_8Q-26" vertex="1">
            <mxGeometry x="474" y="116" width="7" height="8" as="geometry" />
          </mxCell>
        </UserObject>
        <UserObject label="0" tags="pipeline forwarding" component="bool-value" source="exec-reg-write" id="uWEq7-W_z53UrtFael4O-63">
          <mxCell style="rounded=1;fontFamily=sans-serif;fontSize=6;arcSize=1;align=center;spacing=0;comic=0;allowArrows=0;connectable=0;recursiveResize=0;editable=0;expand=0;resizable=0;rotatable=0;" parent="Haz_8EwUBin59iLyk_8Q-26" vertex="1">
            <mxGeometry x="464" y="104" width="7" height="8" as="geometry" />
          </mxCell>
        </UserObject>
        <UserObject label="0" tags="pipeline forwarding" component="bool-value" source="exec-branch" id="uWEq7-W_z53UrtFael4O-64">
          <mxCell style="rounded=1;fontFamily=sans-serif;fontSize=6;arcSize=1;align=center;spacing=0;comic=0;allowArrows=0;connectable=0;recursiveResize=0;editable=0;expand=0;resizable=0;rotatable=0;" parent="Haz_8EwUBin59iLyk_8Q-26" vertex="1">
            <mxGeometry x="520" y="166" width="7" height="8" as="geometry" />
          </mxCell>
        </UserObject>
        <UserObject label="0" tags="simple" component="bool-value" source="decode-reg-write" id="uWEq7-W_z53UrtFael4O-67">
          <mxCell style="rounded=1;fontFamily=sans-serif;fontSize=6;arcSize=1;align=center;spacing=0;comic=0;allowArrows=0;connectable=0;recursiveResize=0;editable=0;expand=0;resizable=0;rotatable=0;" parent="Haz_8EwUBin59iLyk_8Q-26" vertex="1" visible="0">
            <mxGeometry x="276" y="198" width="7" height="8" as="geometry" />
          </mxCell>
        </UserObject>
        <UserObject label="0" tags="simple pipeline forwarding" component="bool-value" source="decode-mem-to-reg" id="uWEq7-W_z53UrtFael4O-68">
          <mxCell style="rounded=1;fontFamily=sans-serif;fontSize=6;arcSize=1;align=center;spacing=0;comic=0;allowArrows=0;connectable=0;recursiveResize=0;editable=0;expand=0;resizable=0;rotatable=0;" parent="Haz_8EwUBin59iLyk_8Q-26" vertex="1">
            <mxGeometry x="330" y="109" width="7" height="8" as="geometry" />
          </mxCell>
        </UserObject>
        <UserObject label="0" tags="simple pipeline forwarding" component="bool-value" source="decode-mem-write" id="uWEq7-W_z53UrtFael4O-69">
          <mxCell style="rounded=1;fontFamily=sans-serif;fontSize=6;arcSize=1;align=center;spacing=0;comic=0;allowArrows=0;connectable=0;recursiveResize=0;editable=0;expand=0;resizable=0;rotatable=0;" parent="Haz_8EwUBin59iLyk_8Q-26" vertex="1">
            <mxGeometry x="343" y="115" width="7" height="8" as="geometry" />
          </mxCell>
        </UserObject>
        <UserObject label="0" tags="simple pipeline forwarding" component="bool-value" source="decode-mem-read" id="uWEq7-W_z53UrtFael4O-70">
          <mxCell style="rounded=1;fontFamily=sans-serif;fontSize=6;arcSize=1;align=center;spacing=0;comic=0;allowArrows=0;connectable=0;recursiveResize=0;editable=0;expand=0;resizable=0;rotatable=0;" parent="Haz_8EwUBin59iLyk_8Q-26" vertex="1">
            <mxGeometry x="330" y="121.5" width="7" height="8" as="geometry" />
          </mxCell>
        </UserObject>
        <UserObject label="0" tags="pipeline forwarding" component="bool-value" source="wb-reg-write" id="uWEq7-W_z53UrtFael4O-71">
          <mxCell style="rounded=1;fontFamily=sans-serif;fontSize=6;arcSize=1;align=center;spacing=0;comic=0;allowArrows=0;connectable=0;recursiveResize=0;editable=0;expand=0;resizable=0;rotatable=0;" parent="Haz_8EwUBin59iLyk_8Q-26" vertex="1">
            <mxGeometry x="480" y="41" width="7" height="8" as="geometry" />
          </mxCell>
        </UserObject>
        <UserObject label="0" tags="simple pipeline forwarding" component="bool-value" source="decode-reg-write" id="uWEq7-W_z53UrtFael4O-72">
          <mxCell style="rounded=1;fontFamily=sans-serif;fontSize=6;arcSize=1;align=center;spacing=0;comic=0;allowArrows=0;connectable=0;recursiveResize=0;editable=0;expand=0;resizable=0;rotatable=0;" parent="Haz_8EwUBin59iLyk_8Q-26" vertex="1">
            <mxGeometry x="343" y="102.5" width="7" height="8" as="geometry" />
          </mxCell>
        </UserObject>
        <UserObject label="0" tags="pipeline forwarding" component="bool-value" source="mem-mem-to-reg" id="uWEq7-W_z53UrtFael4O-73">
          <mxCell style="rounded=1;fontFamily=sans-serif;fontSize=6;arcSize=1;align=center;spacing=0;comic=0;allowArrows=0;connectable=0;recursiveResize=0;editable=0;expand=0;resizable=0;rotatable=0;" parent="Haz_8EwUBin59iLyk_8Q-26" vertex="1">
            <mxGeometry x="584" y="107.5" width="7" height="8" as="geometry" />
          </mxCell>
        </UserObject>
        <UserObject label="0" tags="pipeline forwarding" component="bool-value" source="mem-mem-read" id="uWEq7-W_z53UrtFael4O-74">
          <mxCell style="rounded=1;fontFamily=sans-serif;fontSize=6;arcSize=1;align=center;spacing=0;comic=0;allowArrows=0;connectable=0;recursiveResize=0;editable=0;expand=0;resizable=0;rotatable=0;" parent="Haz_8EwUBin59iLyk_8Q-26" vertex="1">
            <mxGeometry x="618" y="198" width="7" height="8" as="geometry" />
          </mxCell>
        </UserObject>
        <UserObject label="0" tags="pipeline forwarding" component="bool-value" source="mem-mem-write" id="uWEq7-W_z53UrtFael4O-75">
          <mxCell style="rounded=1;fontFamily=sans-serif;fontSize=6;arcSize=1;align=center;spacing=0;comic=0;allowArrows=0;connectable=0;recursiveResize=0;editable=0;expand=0;resizable=0;rotatable=0;" parent="Haz_8EwUBin59iLyk_8Q-26" vertex="1">
            <mxGeometry x="629" y="198" width="7" height="8" as="geometry" />
          </mxCell>
        </UserObject>
        <UserObject label="0" tags="pipeline forwarding" component="bool-value" source="mem-reg-write" id="uWEq7-W_z53UrtFael4O-76">
          <mxCell style="rounded=1;fontFamily=sans-serif;fontSize=6;arcSize=1;align=center;spacing=0;comic=0;allowArrows=0;connectable=0;recursiveResize=0;editable=0;expand=0;resizable=0;rotatable=0;" parent="Haz_8EwUBin59iLyk_8Q-26" vertex="1">
            <mxGeometry x="562" y="102.5" width="7" height="8" as="geometry" />
          </mxCell>
        </UserObject>
        <UserObject label="0" tags="simple pipeline forwarding" component="bool-value" source="decode-branch" id="uWEq7-W_z53UrtFael4O-77">
          <mxCell style="rounded=1;fontFamily=sans-serif;fontSize=6;arcSize=1;align=center;spacing=0;comic=0;allowArrows=0;connectable=0;recursiveResize=0;editable=0;expand=0;resizable=0;rotatable=0;" parent="Haz_8EwUBin59iLyk_8Q-26" vertex="1">
            <mxGeometry x="330" y="149.5" width="7" height="8" as="geometry" />
          </mxCell>
        </UserObject>
        <object label="0" component="debug-value" source="cycle-count" tags="simple forwarding hazardunit pipeline" id="uWEq7-W_z53UrtFael4O-78">
          <mxCell style="text;strokeColor=none;fillColor=none;align=left;verticalAlign=middle;rounded=0;fontFamily=sans-serif;fontSize=6;fontColor=#000000;fontStyle=1;spacing=0;spacingBottom=1;" parent="Haz_8EwUBin59iLyk_8Q-26" vertex="1">
            <mxGeometry x="467" y="526" width="40" height="10" as="geometry" />
          </mxCell>
        </object>
        <object label="0" component="debug-value" source="stall-count" tags="simple forwarding hazardunit pipeline" id="uWEq7-W_z53UrtFael4O-79">
          <mxCell style="text;strokeColor=none;fillColor=none;align=left;verticalAlign=middle;rounded=0;fontFamily=sans-serif;fontSize=6;fontColor=#000000;fontStyle=1;spacing=0;spacingBottom=1;" parent="Haz_8EwUBin59iLyk_8Q-26" vertex="1">
            <mxGeometry x="596" y="526.5" width="40" height="10" as="geometry" />
          </mxCell>
        </object>
        <UserObject label="0" tags="forwarding" component="debug-value" source="exec-forward-a" id="uWEq7-W_z53UrtFael4O-80">
          <mxCell style="rounded=1;fontFamily=sans-serif;fontSize=6;arcSize=1;align=center;spacing=0;comic=0;allowArrows=0;connectable=0;recursiveResize=0;editable=0;expand=0;resizable=1;rotatable=0;resizeWidth=1;" parent="Haz_8EwUBin59iLyk_8Q-26" vertex="1">
            <mxGeometry x="428.25" y="220" width="15.5" height="8" as="geometry" />
          </mxCell>
        </UserObject>
        <UserObject label="0" tags="simple pipeline forwarding" component="debug-value" source="exec-alu-op" id="uWEq7-W_z53UrtFael4O-81">
          <mxCell style="rounded=1;fontFamily=sans-serif;fontSize=6;arcSize=1;align=center;spacing=0;comic=0;allowArrows=0;connectable=0;recursiveResize=0;editable=0;expand=0;resizable=1;rotatable=0;resizeWidth=1;" parent="Haz_8EwUBin59iLyk_8Q-26" vertex="1">
            <mxGeometry x="494.5" y="210" width="15.5" height="8" as="geometry" />
          </mxCell>
        </UserObject>
        <UserObject label="0" tags="forwarding" component="debug-value" source="exec-forward-b" id="uWEq7-W_z53UrtFael4O-82">
          <mxCell style="rounded=1;fontFamily=sans-serif;fontSize=6;arcSize=1;align=center;spacing=0;comic=0;allowArrows=0;connectable=0;recursiveResize=0;editable=0;expand=0;resizable=1;rotatable=0;resizeWidth=1;" parent="Haz_8EwUBin59iLyk_8Q-26" vertex="1">
            <mxGeometry x="428.25" y="274" width="15.5" height="8" as="geometry" />
          </mxCell>
        </UserObject>
        <UserObject label="0" tags="simple pipeline forwarding" component="debug-value" source="decode-alu-op" id="uWEq7-W_z53UrtFael4O-83">
          <mxCell style="rounded=1;fontFamily=sans-serif;fontSize=6;arcSize=1;align=center;spacing=0;comic=0;allowArrows=0;connectable=0;recursiveResize=0;editable=0;expand=0;resizable=1;rotatable=0;resizeWidth=1;" parent="Haz_8EwUBin59iLyk_8Q-26" vertex="1">
            <mxGeometry x="321" y="135" width="15.5" height="8" as="geometry" />
          </mxCell>
        </UserObject>
        <UserObject label="Hazard Unit:" tags="hazardunit" id="uWEq7-W_z53UrtFael4O-84">
          <mxCell style="text;strokeColor=none;fillColor=none;align=right;verticalAlign=middle;rounded=0;fontSize=6;fontFamily=sans-serif;spacing=0;fontStyle=1;labelPosition=center;verticalLabelPosition=middle;labelBackgroundColor=none;spacingBottom=0;" parent="Haz_8EwUBin59iLyk_8Q-26" vertex="1">
            <mxGeometry x="221" y="522" width="41" height="15" as="geometry" />
          </mxCell>
        </UserObject>
        <UserObject label="NORMAL" tags="hazardunit" component="multi-text-value" source="hazard" id="uWEq7-W_z53UrtFael4O-89">
          <mxCell style="text;strokeColor=none;align=center;verticalAlign=middle;rounded=0;fontSize=6;fontFamily=sans-serif;spacing=3;fontStyle=1;labelPosition=center;verticalLabelPosition=middle;labelBackgroundColor=none;spacingBottom=0;fillColor=#CCCCCC;spacingTop=0;" parent="Haz_8EwUBin59iLyk_8Q-26" vertex="1">
            <mxGeometry x="266" y="522" width="108" height="15" as="geometry" />
          </mxCell>
        </UserObject>
        <UserObject label="ADD $0, $1, $3" tags="forwarding simple pipeline" component="instruction-value" source="fetch" id="uWEq7-W_z53UrtFael4O-90">
          <mxCell style="rounded=1;comic=0;fontFamily=sans-serif;fontSize=11;fontColor=#000000;align=center;spacing=4;horizontal=1;fontStyle=0;fillColor=#FFADAD;strokeColor=none;" parent="Haz_8EwUBin59iLyk_8Q-26" vertex="1">
            <mxGeometry x="13" y="14.5" width="135" height="26.5" as="geometry" />
          </mxCell>
        </UserObject>
        <UserObject label="ADD $0, $1, $3" tags="forwarding pipeline" component="instruction-value" source="decode" id="uWEq7-W_z53UrtFael4O-91">
          <mxCell style="rounded=1;comic=0;fontFamily=sans-serif;fontSize=11;fontColor=#000000;align=center;spacing=4;horizontal=1;fontStyle=0;strokeColor=none;fillColor=#FFD4AD;" parent="Haz_8EwUBin59iLyk_8Q-26" vertex="1">
            <mxGeometry x="178" y="14.5" width="135" height="26.5" as="geometry" />
          </mxCell>
        </UserObject>
        <UserObject label="ADD $0, $1, $3" tags="forwarding pipeline" component="instruction-value" source="exec" id="uWEq7-W_z53UrtFael4O-92">
          <mxCell style="rounded=1;comic=0;fontFamily=sans-serif;fontSize=11;fontColor=#000000;align=center;spacing=4;horizontal=1;fontStyle=0;strokeColor=none;fillColor=#C1FFAD;" parent="Haz_8EwUBin59iLyk_8Q-26" vertex="1">
            <mxGeometry x="343" y="14.5" width="135" height="26.5" as="geometry" />
          </mxCell>
        </UserObject>
        <UserObject label="ADD $0, $1, $3" tags="forwarding pipeline" component="instruction-value" source="mem" id="uWEq7-W_z53UrtFael4O-93">
          <mxCell style="rounded=1;comic=0;fontFamily=sans-serif;fontSize=11;fontColor=#000000;align=center;spacing=4;horizontal=1;fontStyle=0;strokeColor=none;fillColor=#ADFFE5;" parent="Haz_8EwUBin59iLyk_8Q-26" vertex="1">
            <mxGeometry x="508" y="14.5" width="135" height="26.5" as="geometry" />
          </mxCell>
        </UserObject>
        <UserObject label="ADD $0, $1, $3" tags="forwarding pipeline" component="instruction-value" source="wb" id="uWEq7-W_z53UrtFael4O-94">
          <mxCell style="rounded=1;comic=0;fontFamily=sans-serif;fontSize=11;fontColor=#000000;align=center;spacing=4;horizontal=1;fontStyle=0;strokeColor=none;fillColor=#FFADE6;" parent="Haz_8EwUBin59iLyk_8Q-26" vertex="1">
            <mxGeometry x="673" y="14.5" width="135" height="26.5" as="geometry" />
          </mxCell>
        </UserObject>
        <UserObject label="00000000" tags="pipeline forwarding" component="reg-value" source="exec-imm" id="qpQ6hB7pEMShyfFWmkmH-1">
          <mxCell style="rounded=1;fontFamily=sans-serif;fontSize=6;arcSize=1;spacing=0;" parent="Haz_8EwUBin59iLyk_8Q-26" vertex="1">
            <mxGeometry x="437" y="408" width="56" height="8" as="geometry" />
          </mxCell>
        </UserObject>
        <UserObject label="" tags="forwarding simple pipeline" id="kbNWJ5ZPAqXhiAnqFs6d-0">
          <mxCell style="group" parent="Haz_8EwUBin59iLyk_8Q-26" vertex="1" connectable="0">
            <mxGeometry x="35" y="49" width="89" height="34" as="geometry" />
          </mxCell>
        </UserObject>
        <UserObject label="Exception:" tags="forwarding pipeline simple" id="Haz_8EwUBin59iLyk_8Q-186">
          <mxCell style="text;strokeColor=none;fillColor=none;align=right;verticalAlign=middle;rounded=0;fontSize=6;fontFamily=sans-serif;spacing=0;fontStyle=1;labelPosition=center;verticalLabelPosition=middle;labelBackgroundColor=none;spacingBottom=0;" parent="kbNWJ5ZPAqXhiAnqFs6d-0" vertex="1">
            <mxGeometry x="1" y="2" width="41" height="17" as="geometry" />
          </mxCell>
        </UserObject>
        <UserObject label="NONE" tags="" component="multi-text-value" source="fetch-exception" id="uWEq7-W_z53UrtFael4O-88">
          <mxCell style="text;strokeColor=none;align=center;verticalAlign=middle;rounded=0;fontSize=6;fontFamily=sans-serif;spacing=3;fontStyle=1;labelPosition=center;verticalLabelPosition=middle;labelBackgroundColor=none;spacingBottom=0;fillColor=#CCCCCC;spacingTop=0;" parent="kbNWJ5ZPAqXhiAnqFs6d-0" vertex="1">
            <mxGeometry x="1" y="19" width="89" height="15" as="geometry" />
          </mxCell>
        </UserObject>
        <mxCell id="kbNWJ5ZPAqXhiAnqFs6d-1" value="" style="group" parent="Haz_8EwUBin59iLyk_8Q-26" vertex="1" connectable="0">
          <mxGeometry x="185" y="49" width="89" height="34" as="geometry" />
        </mxCell>
        <UserObject label="Exception:" tags="forwarding pipeline" id="kbNWJ5ZPAqXhiAnqFs6d-2">
          <mxCell style="text;strokeColor=none;fillColor=none;align=right;verticalAlign=middle;rounded=0;fontSize=6;fontFamily=sans-serif;spacing=0;fontStyle=1;labelPosition=center;verticalLabelPosition=middle;labelBackgroundColor=none;spacingBottom=0;" parent="kbNWJ5ZPAqXhiAnqFs6d-1" vertex="1">
            <mxGeometry x="1" y="2" width="41" height="17" as="geometry" />
          </mxCell>
        </UserObject>
        <UserObject label="NONE" tags="pipeline forwarding" component="multi-text-value" source="decode-exception" id="kbNWJ5ZPAqXhiAnqFs6d-3">
          <mxCell style="text;strokeColor=none;align=center;verticalAlign=middle;rounded=0;fontSize=6;fontFamily=sans-serif;spacing=3;fontStyle=1;labelPosition=center;verticalLabelPosition=middle;labelBackgroundColor=none;spacingBottom=0;fillColor=#CCCCCC;spacingTop=0;" parent="kbNWJ5ZPAqXhiAnqFs6d-1" vertex="1">
            <mxGeometry x="1" y="19" width="89" height="15" as="geometry" />
          </mxCell>
        </UserObject>
        <mxCell id="kbNWJ5ZPAqXhiAnqFs6d-4" value="" style="group" parent="Haz_8EwUBin59iLyk_8Q-26" vertex="1" connectable="0">
          <mxGeometry x="555" y="49" width="89" height="34" as="geometry" />
        </mxCell>
        <UserObject label="Exception:" tags="pipeline forwarding" id="kbNWJ5ZPAqXhiAnqFs6d-5">
          <mxCell style="text;strokeColor=none;fillColor=none;align=right;verticalAlign=middle;rounded=0;fontSize=6;fontFamily=sans-serif;spacing=0;fontStyle=1;labelPosition=center;verticalLabelPosition=middle;labelBackgroundColor=none;spacingBottom=0;" parent="kbNWJ5ZPAqXhiAnqFs6d-4" vertex="1">
            <mxGeometry x="1" y="2" width="41" height="17" as="geometry" />
          </mxCell>
        </UserObject>
        <UserObject label="NONE" tags="pipeline forwarding" component="multi-text-value" source="memory-exception" id="kbNWJ5ZPAqXhiAnqFs6d-6">
          <mxCell style="text;strokeColor=none;align=center;verticalAlign=middle;rounded=0;fontSize=6;fontFamily=sans-serif;spacing=3;fontStyle=1;labelPosition=center;verticalLabelPosition=middle;labelBackgroundColor=none;spacingBottom=0;fillColor=#CCCCCC;spacingTop=0;" parent="kbNWJ5ZPAqXhiAnqFs6d-4" vertex="1">
            <mxGeometry x="1" y="19" width="89" height="15" as="geometry" />
          </mxCell>
        </UserObject>
        <UserObject label="" tags="simple pipeline" id="uWEq7-W_z53UrtFael4O-40">
          <mxCell style="edgeStyle=orthogonalEdgeStyle;rounded=0;orthogonalLoop=1;jettySize=auto;html=0;exitX=0;exitY=0.35;exitDx=0;exitDy=0;exitPerimeter=0;entryX=1;entryY=0.5;entryDx=0;entryDy=0;shadow=0;fontFamily=sans-serif;fontSize=6;strokeWidth=3;labelBackgroundColor=none;endFill=0;endArrow=none;sketch=0;jumpStyle=arc;jumpSize=4;" parent="Haz_8EwUBin59iLyk_8Q-26" source="Haz_8EwUBin59iLyk_8Q-113" target="Haz_8EwUBin59iLyk_8Q-153" edge="1" visible="0">
            <mxGeometry relative="1" as="geometry">
              <Array as="points">
                <mxPoint x="403" y="302" />
                <mxPoint x="403" y="270" />
              </Array>
              <mxPoint x="470.6388888888888" y="301.75" as="sourcePoint" />
              <mxPoint x="289.03999999999996" y="269.6" as="targetPoint" />
            </mxGeometry>
          </mxCell>
        </UserObject>
        <UserObject label="" tags="forwarding simple pipeline" id="HRoSpS79B9qHWH9jaoA8-1">
          <mxCell style="rounded=0;whiteSpace=wrap;html=1;fillColor=#000000;strokeColor=none;" parent="Haz_8EwUBin59iLyk_8Q-26" vertex="1">
            <mxGeometry x="232" y="499.5" width="1" height="1" as="geometry" />
          </mxCell>
        </UserObject>
        <UserObject label="" tags="simple pipeline forwarding" id="Haz_8EwUBin59iLyk_8Q-60">
          <mxCell style="edgeStyle=orthogonalEdgeStyle;rounded=0;sketch=0;jumpStyle=arc;jumpSize=4;orthogonalLoop=1;jettySize=auto;shadow=0;endArrow=none;endFill=0;strokeColor=#000000;strokeWidth=1;fontSize=6;fontFamily=sans-serif;verticalAlign=middle;align=center;labelPosition=center;verticalLabelPosition=middle;labelBackgroundColor=none;html=1;exitX=1;exitY=0.25;exitDx=0;exitDy=0;entryX=1;entryY=0.5;entryDx=0;entryDy=0;" parent="Haz_8EwUBin59iLyk_8Q-26" target="HRoSpS79B9qHWH9jaoA8-1" edge="1">
            <mxGeometry relative="1" as="geometry">
              <Array as="points">
                <mxPoint x="192" y="395" />
                <mxPoint x="702" y="395" />
                <mxPoint x="702" y="500" />
              </Array>
              <mxPoint x="192" y="391.5" as="sourcePoint" />
              <mxPoint x="234" y="500" as="targetPoint" />
            </mxGeometry>
          </mxCell>
        </UserObject>
        <UserObject label="" tags="simple forwarding pipeline" id="HRoSpS79B9qHWH9jaoA8-2">
          <mxCell style="edgeStyle=orthogonalEdgeStyle;rounded=0;orthogonalLoop=1;jettySize=auto;html=1;endArrow=none;endFill=0;jumpStyle=arc;jumpSize=4;exitX=0;exitY=0.5;exitDx=0;exitDy=0;" parent="Haz_8EwUBin59iLyk_8Q-26" source="HRoSpS79B9qHWH9jaoA8-1" edge="1">
            <mxGeometry relative="1" as="geometry">
              <mxPoint x="233" y="494" as="sourcePoint" />
              <mxPoint x="231" y="309" as="targetPoint" />
              <Array as="points">
                <mxPoint x="211" y="500" />
                <mxPoint x="211" y="309" />
              </Array>
            </mxGeometry>
          </mxCell>
        </UserObject>
        <UserObject label="00" tags="simple pipeline forwarding" component="reg-id-value" source="decode-rd" id="Haz_8EwUBin59iLyk_8Q-93">
          <mxCell style="rounded=1;fontFamily=sans-serif;fontSize=6;arcSize=1;spacing=0;" parent="Haz_8EwUBin59iLyk_8Q-26" vertex="1">
            <mxGeometry x="314" y="390" width="14" height="8" as="geometry" />
          </mxCell>
        </UserObject>
        <UserObject label="00" tags="pipeline forwarding" component="reg-id-value" source="exec-rd" id="Haz_8EwUBin59iLyk_8Q-94">
          <mxCell style="rounded=1;fontFamily=sans-serif;fontSize=6;arcSize=1;spacing=0;" parent="Haz_8EwUBin59iLyk_8Q-26" vertex="1">
            <mxGeometry x="496" y="390" width="14" height="8" as="geometry" />
          </mxCell>
        </UserObject>
        <UserObject label="Write data" tags="pipeline forwarding simple" id="Haz_8EwUBin59iLyk_8Q-96">
          <mxCell style="text;strokeColor=none;fillColor=none;align=center;verticalAlign=middle;rounded=0;fontSize=6;fontFamily=sans-serif;spacing=0;fontStyle=1;labelPosition=center;verticalLabelPosition=middle;labelBackgroundColor=none;spacingBottom=1;" parent="Haz_8EwUBin59iLyk_8Q-26" vertex="1">
            <mxGeometry x="491" y="339" width="47" height="8" as="geometry" />
          </mxCell>
        </UserObject>
        <UserObject label="00" tags="pipeline forwarding" component="reg-id-value" source="mem-rd" id="Haz_8EwUBin59iLyk_8Q-98">
          <mxCell style="rounded=1;fontFamily=sans-serif;fontSize=6;arcSize=1;spacing=0;" parent="Haz_8EwUBin59iLyk_8Q-26" vertex="1">
            <mxGeometry x="604" y="390" width="14" height="8" as="geometry" />
          </mxCell>
        </UserObject>
        <UserObject label="Rd" tags="pipeline forwarding" id="uWEq7-W_z53UrtFael4O-49">
          <mxCell style="text;strokeColor=none;fillColor=none;align=center;verticalAlign=middle;rounded=0;fontSize=6;fontFamily=sans-serif;spacing=0;fontStyle=1;labelPosition=center;verticalLabelPosition=middle;labelBackgroundColor=none;spacingBottom=1;" parent="Haz_8EwUBin59iLyk_8Q-26" vertex="1">
            <mxGeometry x="607" y="382" width="8" height="8" as="geometry" />
          </mxCell>
        </UserObject>
        <UserObject label="Registers" tags="simple pipeline forwarding" link="#registers" id="Haz_8EwUBin59iLyk_8Q-40">
          <mxCell style="rounded=1;gradientColor=none;arcSize=2;fontSize=6;fontStyle=1;fontFamily=sans-serif;verticalAlign=middle;align=center;labelPosition=center;verticalLabelPosition=middle;labelBackgroundColor=none;" parent="Haz_8EwUBin59iLyk_8Q-26" vertex="1">
            <mxGeometry x="231" y="240" width="60" height="80" as="geometry" />
          </mxCell>
        </UserObject>
        <mxCell id="HRoSpS79B9qHWH9jaoA8-6" style="edgeStyle=orthogonalEdgeStyle;rounded=0;jumpStyle=arc;jumpSize=4;orthogonalLoop=1;jettySize=auto;html=1;entryX=1.002;entryY=0.26;entryDx=0;entryDy=0;entryPerimeter=0;endArrow=none;endFill=0;shadow=0;fontFamily=sans-serif;fontSize=6;strokeColor=#3333FF;strokeWidth=1;labelBackgroundColor=none;sketch=0;" parent="Haz_8EwUBin59iLyk_8Q-26" source="HRoSpS79B9qHWH9jaoA8-5" target="Haz_8EwUBin59iLyk_8Q-85" edge="1">
          <mxGeometry relative="1" as="geometry" />
        </mxCell>
        <UserObject label="" tags="forwarding pipeline" id="HRoSpS79B9qHWH9jaoA8-5">
          <mxCell style="rounded=0;whiteSpace=wrap;html=1;strokeColor=none;fillColor=#3333FF;" parent="Haz_8EwUBin59iLyk_8Q-26" vertex="1">
            <mxGeometry x="285.5" y="106" width="1" height="1" as="geometry" />
          </mxCell>
        </UserObject>
        <UserObject label="Control&#xa;Unit" tags="simple pipeline forwarding" id="Haz_8EwUBin59iLyk_8Q-85">
          <mxCell style="rounded=1;gradientColor=none;arcSize=8;fontSize=6;fontStyle=1;spacing=0;fontFamily=sans-serif;verticalAlign=middle;align=center;labelPosition=center;verticalLabelPosition=middle;labelBackgroundColor=none;" parent="Haz_8EwUBin59iLyk_8Q-26" vertex="1">
            <mxGeometry x="211" y="87" width="40" height="75" as="geometry" />
          </mxCell>
        </UserObject>
        <UserObject label="" tags="forwarding simple pipeline" id="HRoSpS79B9qHWH9jaoA8-7">
          <mxCell style="edgeStyle=orthogonalEdgeStyle;rounded=0;jumpStyle=arc;jumpSize=4;orthogonalLoop=1;jettySize=auto;html=1;entryX=0;entryY=0.75;entryDx=0;entryDy=0;endArrow=none;endFill=0;shadow=0;fontFamily=sans-serif;fontSize=6;strokeWidth=3;labelBackgroundColor=none;sketch=0;" parent="Haz_8EwUBin59iLyk_8Q-26" target="Haz_8EwUBin59iLyk_8Q-211" edge="1">
            <mxGeometry relative="1" as="geometry">
              <mxPoint x="354" y="270" as="sourcePoint" />
              <Array as="points">
                <mxPoint x="404" y="270" />
                <mxPoint x="404" y="349" />
                <mxPoint x="563" y="349" />
                <mxPoint x="563" y="318" />
              </Array>
            </mxGeometry>
          </mxCell>
        </UserObject>
        <UserObject label="00000000" tags="simple pipeline forwarding" component="reg-value" source="decode-rs2" id="Haz_8EwUBin59iLyk_8Q-153">
          <mxCell style="rounded=1;fontFamily=sans-serif;fontSize=6;arcSize=1;align=center;spacing=0;" parent="Haz_8EwUBin59iLyk_8Q-26" vertex="1">
            <mxGeometry x="298.5" y="265.5" width="56" height="8" as="geometry" />
          </mxCell>
        </UserObject>
        <UserObject label="" tags="pipeline forwarding" id="Haz_8EwUBin59iLyk_8Q-164">
          <mxCell style="group" parent="Haz_8EwUBin59iLyk_8Q-26" vertex="1" connectable="0">
            <mxGeometry x="538" y="70" width="6" height="398.5" as="geometry" />
          </mxCell>
        </UserObject>
        <UserObject label="" tags="simple" id="Haz_8EwUBin59iLyk_8Q-165">
          <mxCell style="rounded=0;whiteSpace=wrap;html=1;fontFamily=sans-serif;fontSize=6;fontColor=#0000CC;align=left;" parent="Haz_8EwUBin59iLyk_8Q-164" vertex="1" visible="0">
            <mxGeometry width="6" height="398.5" as="geometry" />
          </mxCell>
        </UserObject>
        <UserObject label="" tags="simple" id="Haz_8EwUBin59iLyk_8Q-166">
          <mxCell style="triangle;whiteSpace=wrap;html=1;rounded=0;fontFamily=sans-serif;fontSize=6;fontColor=#0000CC;align=left;direction=south;" parent="Haz_8EwUBin59iLyk_8Q-164" vertex="1" visible="0">
            <mxGeometry x="0.5" width="5" height="4.5" as="geometry" />
          </mxCell>
        </UserObject>
        <UserObject label="" tags="pipeline simple forwarding" id="Haz_8EwUBin59iLyk_8Q-167">
          <mxCell style="group" parent="Haz_8EwUBin59iLyk_8Q-164" vertex="1" connectable="0">
            <mxGeometry width="6" height="398.5" as="geometry" />
          </mxCell>
        </UserObject>
        <UserObject label="" tags="pipeline forwarding" id="Haz_8EwUBin59iLyk_8Q-168">
          <mxCell style="rounded=0;whiteSpace=wrap;html=1;fontFamily=sans-serif;fontSize=6;fontColor=#0000CC;align=left;" parent="Haz_8EwUBin59iLyk_8Q-167" vertex="1">
            <mxGeometry width="6" height="398.5" as="geometry" />
          </mxCell>
        </UserObject>
        <UserObject label="" tags="pipeline forwarding" id="Haz_8EwUBin59iLyk_8Q-169">
          <mxCell style="triangle;whiteSpace=wrap;html=1;rounded=0;fontFamily=sans-serif;fontSize=6;fontColor=#0000CC;align=left;direction=south;" parent="Haz_8EwUBin59iLyk_8Q-167" vertex="1">
            <mxGeometry x="0.5" width="5" height="4.5" as="geometry" />
          </mxCell>
        </UserObject>
        <UserObject label="" tags="simple pipeline forwarding" id="Haz_8EwUBin59iLyk_8Q-139">
          <mxCell style="edgeStyle=orthogonalEdgeStyle;rounded=0;sketch=0;jumpStyle=arc;jumpSize=4;orthogonalLoop=1;jettySize=auto;shadow=0;endArrow=none;endFill=0;strokeColor=#3333FF;strokeWidth=1;fontFamily=sans-serif;fontSize=6;verticalAlign=middle;align=center;labelPosition=center;verticalLabelPosition=middle;labelBackgroundColor=none;html=1;entryX=0.5;entryY=0.935;entryDx=0;entryDy=0;entryPerimeter=0;" parent="Haz_8EwUBin59iLyk_8Q-26" source="Haz_8EwUBin59iLyk_8Q-84" target="dQApTKY7MUPNvbngPjsP-5" edge="1">
            <mxGeometry relative="1" as="geometry">
              <Array as="points">
                <mxPoint x="575" y="188" />
                <mxPoint x="575" y="200" />
                <mxPoint x="552" y="200" />
                <mxPoint x="552" y="487" />
                <mxPoint x="26" y="487" />
                <mxPoint x="26" y="420" />
                <mxPoint x="26" y="420" />
              </Array>
              <mxPoint x="26.409999999999854" y="414.1264665653496" as="targetPoint" />
            </mxGeometry>
          </mxCell>
        </UserObject>
        <UserObject label="00" tags="simple pipeline forwarding" component="reg-id-value" source="wb-rd" id="Haz_8EwUBin59iLyk_8Q-154">
          <mxCell style="rounded=1;fontFamily=sans-serif;fontSize=6;arcSize=1;align=center;spacing=0;" parent="Haz_8EwUBin59iLyk_8Q-26" vertex="1">
            <mxGeometry x="314" y="496" width="14" height="8" as="geometry" />
          </mxCell>
        </UserObject>
        <UserObject label="00000000" tags="forwarding" component="reg-value" source="alu-src2" id="Haz_8EwUBin59iLyk_8Q-200">
          <mxCell style="rounded=1;fontFamily=sans-serif;fontSize=6;arcSize=1;align=center;direction=south;spacing=0;horizontal=0;" parent="Haz_8EwUBin59iLyk_8Q-26" vertex="1">
            <mxGeometry x="448" y="278.00000000000006" width="7" height="64" as="geometry" />
          </mxCell>
        </UserObject>
        <UserObject label="Rd" tags="pipeline forwarding" id="HRoSpS79B9qHWH9jaoA8-8">
          <mxCell style="text;strokeColor=none;fillColor=none;align=center;verticalAlign=middle;rounded=0;fontSize=6;fontFamily=sans-serif;spacing=0;fontStyle=1;labelPosition=center;verticalLabelPosition=middle;labelBackgroundColor=none;spacingBottom=1;" parent="Haz_8EwUBin59iLyk_8Q-26" vertex="1">
            <mxGeometry x="500" y="383" width="8" height="8" as="geometry" />
          </mxCell>
        </UserObject>
        <UserObject label="" tags="pipeline forwarding" id="HRoSpS79B9qHWH9jaoA8-17">
          <mxCell style="group" parent="Haz_8EwUBin59iLyk_8Q-26" vertex="1" connectable="0">
            <mxGeometry x="343" y="59" width="42" height="410.5" as="geometry" />
          </mxCell>
        </UserObject>
        <UserObject label="" tags="pipeline forwarding" id="Haz_8EwUBin59iLyk_8Q-158">
          <mxCell style="group;fillColor=#ffffff;strokeColor=#000000;" parent="HRoSpS79B9qHWH9jaoA8-17" vertex="1" connectable="0">
            <mxGeometry x="18" y="11" width="6" height="399.5" as="geometry" />
          </mxCell>
        </UserObject>
        <UserObject label="" tags="simple" id="Haz_8EwUBin59iLyk_8Q-159">
          <mxCell style="rounded=0;whiteSpace=wrap;html=1;fontFamily=sans-serif;fontSize=6;fontColor=#0000CC;align=left;" parent="Haz_8EwUBin59iLyk_8Q-158" vertex="1" visible="0">
            <mxGeometry width="6" height="398.5" as="geometry" />
          </mxCell>
        </UserObject>
        <UserObject label="" tags="simple" id="Haz_8EwUBin59iLyk_8Q-160">
          <mxCell style="triangle;whiteSpace=wrap;html=1;rounded=0;fontFamily=sans-serif;fontSize=6;fontColor=#0000CC;align=left;direction=south;" parent="Haz_8EwUBin59iLyk_8Q-158" vertex="1" visible="0">
            <mxGeometry x="0.5" width="5" height="4.5" as="geometry" />
          </mxCell>
        </UserObject>
        <UserObject label="" tags="pipeline forwarding" id="Haz_8EwUBin59iLyk_8Q-161">
          <mxCell style="group" parent="Haz_8EwUBin59iLyk_8Q-158" vertex="1" connectable="0">
            <mxGeometry width="6" height="398.5" as="geometry" />
          </mxCell>
        </UserObject>
        <UserObject label="" tags="pipeline forwarding" id="Haz_8EwUBin59iLyk_8Q-163">
          <mxCell style="triangle;whiteSpace=wrap;html=1;rounded=0;fontFamily=sans-serif;fontSize=6;fontColor=#0000CC;align=left;direction=south;" parent="Haz_8EwUBin59iLyk_8Q-161" vertex="1">
            <mxGeometry x="0.5" width="5" height="4.5" as="geometry" />
          </mxCell>
        </UserObject>
        <UserObject label="ID/EX" tags="pipeline forwarding" id="Haz_8EwUBin59iLyk_8Q-133">
          <mxCell style="text;strokeColor=none;fillColor=none;align=center;verticalAlign=middle;rounded=0;fontSize=6;fontFamily=sans-serif;spacing=0;fontStyle=1;labelPosition=center;verticalLabelPosition=middle;labelBackgroundColor=none;spacingBottom=1;" parent="HRoSpS79B9qHWH9jaoA8-17" vertex="1">
            <mxGeometry width="42" height="8" as="geometry" />
          </mxCell>
        </UserObject>
        <UserObject label="00000000" tags="forwarding" component="reg-value" source="alu-src1" id="HRoSpS79B9qHWH9jaoA8-23">
          <mxCell style="rounded=1;fontFamily=sans-serif;fontSize=6;arcSize=1;align=center;direction=south;spacing=0;horizontal=0;" parent="Haz_8EwUBin59iLyk_8Q-26" vertex="1">
            <mxGeometry x="449" y="199.00000000000006" width="7" height="64" as="geometry" />
          </mxCell>
        </UserObject>
        <UserObject label="00000000" tags="forwarding pipeline" component="reg-value" source="exec-rs2" id="HRoSpS79B9qHWH9jaoA8-24">
          <mxCell style="rounded=1;fontFamily=sans-serif;fontSize=6;arcSize=1;align=center;direction=south;spacing=0;horizontal=0;" parent="Haz_8EwUBin59iLyk_8Q-26" vertex="1">
            <mxGeometry x="374.5" y="263.00000000000006" width="7" height="64" as="geometry" />
          </mxCell>
        </UserObject>
        <UserObject label="" tags="forwarding" component="mux3" source="exec-forward-b" id="Haz_8EwUBin59iLyk_8Q-199">
          <mxCell style="shape=stencil(3ZbBboMwDIafJsdNIWlLOU5su+04adcU0pEVEgS0ZW8/k8AKo2QIOHSTENS/8RfHMVYR9fOIpRwRLFnCEX1EhLy8voFN4Rc8IqN52JhnY5K1MVme8qAw2l6UPDRyXmTqwM8iLOpwISOeiaLy0ieEH+Cd6qJ+oKQEglAy73hafoAxISEWlwZWp/JZW/dNMog8T2YsgHAnMJwF0miCviF4swTFW12nUB+UoWOj/o4Fh/dMHWV4de2UVS3RczTuWEj+oYQESz90Ljt+4rFtS010ok588HzGAKrlLwDSLYkzH7GdgOhuw5tNWFt7bAyBjiIEscr5r2/tRRybaWFpWNB7faPVgWYDrMq4pQvb8wlm2mVObe1fTlWVgKVgVHcdYRaxRunc2wM2OZb45yi0dfId6dSfEPucGGhFtwNZ3cIh2irkzKjQuM397fqQGfXZuP+lg7Ta+9q1av7YaOEL);rounded=1;fontSize=7;align=right;spacingRight=0;spacingBottom=0;fontStyle=1;spacing=0;arcSize=19;" parent="Haz_8EwUBin59iLyk_8Q-26" vertex="1">
            <mxGeometry x="426" y="286" width="20" height="34" as="geometry" />
          </mxCell>
        </UserObject>
        <UserObject label="0" tags="simple pipeline forwarding" component="bool-value" source="exec-branch" id="uWEq7-W_z53UrtFael4O-66">
          <mxCell style="rounded=1;fontFamily=sans-serif;fontSize=6;arcSize=1;align=center;spacing=0;comic=0;allowArrows=0;connectable=0;recursiveResize=0;editable=0;expand=0;resizable=0;rotatable=0;" parent="Haz_8EwUBin59iLyk_8Q-26" vertex="1">
            <mxGeometry x="22.910000000000025" y="426" width="7" height="8" as="geometry" />
          </mxCell>
        </UserObject>
        <UserObject label="Terminal" link="#terminal" tags="simple pipeline forwarding" id="HRoSpS79B9qHWH9jaoA8-25">
          <mxCell style="rounded=1;gradientColor=none;arcSize=17;fontSize=6;fontFamily=sans-serif;fontStyle=1;verticalAlign=middle;align=center;labelPosition=center;verticalLabelPosition=middle;labelBackgroundColor=none;" parent="Haz_8EwUBin59iLyk_8Q-26" vertex="1">
            <mxGeometry x="591" y="360" width="45" height="16" as="geometry" />
          </mxCell>
        </UserObject>
        <UserObject label="" tags="simple pipeline forwarding" component="mux2" source="exec-branch" id="dQApTKY7MUPNvbngPjsP-5">
          <mxCell style="shape=stencil(3VXBUoMwEP2aHHUgEStHB/Xm0RmvKWxtLE0YwLb+vUsW2kYk7aQeHGcYYN+yL5uXl8BE1ixlBYxHWq6BiQfG+fPLK8Yc3/CxJCyNKNxSKBIKZVNB3hK2UDsoCG7a2qxgq4q2L1d6CbVqu6x4ZNE9ftNdIsuN1sigjG6czFEeyaTSWBvtiKxv5bOProdmGH8K5rgN4Ii/cYS0MRTtSaKQTsY06ZQoIkNkSnWRzWW+eqvNhy5+HLyS3YqOEkO6VBrejdIY2YdtZg4bKH1zGqrXZgOTK3QOQTf8gUC4msReXc+imAVQuNNIA+bhMiQX9+DfLnublaaBk18tVFnSZvc4FvGRbyw6YTakNTV4XHh8vOCRdDhmYq+8JEsuKwy6uy2hUbxVJ0zv2vaKu2LH/mNhwnczh+TmL6zYb6iR3P0XNSw6sqlF6YdqgS8=);rounded=1;fontSize=7;align=right;spacingRight=0;spacingBottom=0;fontStyle=1;spacing=0;arcSize=19;" vertex="1" parent="Haz_8EwUBin59iLyk_8Q-26">
            <mxGeometry x="16.909999999999997" y="391.00000000000006" width="19" height="25" as="geometry" />
          </mxCell>
        </UserObject>
        <mxCell id="dQApTKY7MUPNvbngPjsP-6" value="" style="group" vertex="1" connectable="0" parent="Haz_8EwUBin59iLyk_8Q-26">
          <mxGeometry x="380" y="49" width="89" height="34" as="geometry" />
        </mxCell>
        <UserObject label="Exception:" tags="pipeline forwarding" id="dQApTKY7MUPNvbngPjsP-7">
          <mxCell style="text;strokeColor=none;fillColor=none;align=right;verticalAlign=middle;rounded=0;fontSize=6;fontFamily=sans-serif;spacing=0;fontStyle=1;labelPosition=center;verticalLabelPosition=middle;labelBackgroundColor=none;spacingBottom=0;" vertex="1" parent="dQApTKY7MUPNvbngPjsP-6">
            <mxGeometry x="1" y="2" width="41" height="17" as="geometry" />
          </mxCell>
        </UserObject>
        <UserObject label="NONE" tags="pipeline forwarding" component="multi-text-value" source="execute-exception" id="dQApTKY7MUPNvbngPjsP-8">
          <mxCell style="text;strokeColor=none;align=center;verticalAlign=middle;rounded=0;fontSize=6;fontFamily=sans-serif;spacing=3;fontStyle=1;labelPosition=center;verticalLabelPosition=middle;labelBackgroundColor=none;spacingBottom=0;fillColor=#CCCCCC;spacingTop=0;" vertex="1" parent="dQApTKY7MUPNvbngPjsP-6">
            <mxGeometry x="1" y="19" width="89" height="15" as="geometry" />
          </mxCell>
        </UserObject>
      </root>
    </mxGraphModel>
  </diagram>
</mxfile>
